<?xml version="1.0" encoding="utf-8" standalone="no"?>
<!DOCTYPE svg PUBLIC "-//W3C//DTD SVG 1.1//EN"
  "http://www.w3.org/Graphics/SVG/1.1/DTD/svg11.dtd">
<svg xmlns:xlink="http://www.w3.org/1999/xlink" width="1144.8pt" height="640.7175pt" viewBox="0 0 1144.8 640.7175" xmlns="http://www.w3.org/2000/svg" version="1.1">
 <metadata>
  <rdf:RDF xmlns:dc="http://purl.org/dc/elements/1.1/" xmlns:cc="http://creativecommons.org/ns#" xmlns:rdf="http://www.w3.org/1999/02/22-rdf-syntax-ns#">
   <cc:Work>
    <dc:type rdf:resource="http://purl.org/dc/dcmitype/StillImage"/>
    <dc:date>2026-06-14T15:35:32.198279</dc:date>
    <dc:format>image/svg+xml</dc:format>
    <dc:creator>
     <cc:Agent>
      <dc:title>Matplotlib v3.11.0, https://matplotlib.org/</dc:title>
     </cc:Agent>
    </dc:creator>
   </cc:Work>
  </rdf:RDF>
 </metadata>
 <defs>
  <style type="text/css">*{stroke-linejoin: round; stroke-linecap: butt}</style>
 </defs>
 <g id="figure_1">
  <g id="patch_1">
   <path d="M 0 640.7175
L 1144.8 640.7175
L 1144.8 0
L 0 0
z
" style="fill: #ffffff"/>
  </g>
  <g id="axes_1">
   <g id="patch_2">
    <path d="M 77.2848 201.64598
L 479.7072 201.64598
L 479.7072 144.22262
L 77.2848 144.22262
z
" clip-path="url(#p31b380183e)" style="fill: #f6f7fb; stroke: #333333; stroke-width: 1.25; stroke-linejoin: miter"/>
   </g>
   <g id="patch_3">
    <path d="M 608.5728 201.64598
L 1056.2112 201.64598
L 1056.2112 144.22262
L 608.5728 144.22262
z
" clip-path="url(#p31b380183e)" style="fill: #fff4d6; stroke: #333333; stroke-width: 1.25; stroke-linejoin: miter"/>
   </g>
   <g id="patch_4">
    <path d="M 461.359968 172.9343
Q 544.139011 172.9343 625.352807 172.9343
" clip-path="url(#p31b380183e)" style="fill: none; stroke: #333333; stroke-width: 1.4; stroke-linecap: round"/>
    <path d="M 619.752807 170.1343
L 625.352807 172.9343
L 619.752807 175.7343
" clip-path="url(#p31b380183e)" style="fill: none; stroke: #333333; stroke-width: 1.4; stroke-linecap: round"/>
   </g>
   <g id="patch_5">
    <path d="M 77.2848 258.47118
L 479.7072 258.47118
L 479.7072 201.04782
L 77.2848 201.04782
z
" clip-path="url(#p31b380183e)" style="fill: #f6f7fb; stroke: #333333; stroke-width: 1.25; stroke-linejoin: miter"/>
   </g>
   <g id="patch_6">
    <path d="M 608.5728 258.47118
L 1056.2112 258.47118
L 1056.2112 201.04782
L 608.5728 201.04782
z
" clip-path="url(#p31b380183e)" style="fill: #fff4d6; stroke: #333333; stroke-width: 1.25; stroke-linejoin: miter"/>
   </g>
   <g id="patch_7">
    <path d="M 461.359968 229.7595
Q 544.139011 229.7595 625.352807 229.7595
" clip-path="url(#p31b380183e)" style="fill: none; stroke: #333333; stroke-width: 1.4; stroke-linecap: round"/>
    <path d="M 619.752807 226.9595
L 625.352807 229.7595
L 619.752807 232.5595
" clip-path="url(#p31b380183e)" style="fill: none; stroke: #333333; stroke-width: 1.4; stroke-linecap: round"/>
   </g>
   <g id="patch_8">
    <path d="M 77.2848 315.29638
L 479.7072 315.29638
L 479.7072 257.87302
L 77.2848 257.87302
z
" clip-path="url(#p31b380183e)" style="fill: #f6f7fb; stroke: #333333; stroke-width: 1.25; stroke-linejoin: miter"/>
   </g>
   <g id="patch_9">
    <path d="M 608.5728 315.29638
L 1056.2112 315.29638
L 1056.2112 257.87302
L 608.5728 257.87302
z
" clip-path="url(#p31b380183e)" style="fill: #fff4d6; stroke: #333333; stroke-width: 1.25; stroke-linejoin: miter"/>
   </g>
   <g id="patch_10">
    <path d="M 461.359968 286.5847
Q 544.139011 286.5847 625.352807 286.5847
" clip-path="url(#p31b380183e)" style="fill: none; stroke: #333333; stroke-width: 1.4; stroke-linecap: round"/>
    <path d="M 619.752807 283.7847
L 625.352807 286.5847
L 619.752807 289.3847
" clip-path="url(#p31b380183e)" style="fill: none; stroke: #333333; stroke-width: 1.4; stroke-linecap: round"/>
   </g>
   <g id="patch_11">
    <path d="M 77.2848 372.12158
L 479.7072 372.12158
L 479.7072 314.69822
L 77.2848 314.69822
z
" clip-path="url(#p31b380183e)" style="fill: #f6f7fb; stroke: #333333; stroke-width: 1.25; stroke-linejoin: miter"/>
   </g>
   <g id="patch_12">
    <path d="M 608.5728 372.12158
L 1056.2112 372.12158
L 1056.2112 314.69822
L 608.5728 314.69822
z
" clip-path="url(#p31b380183e)" style="fill: #fff4d6; stroke: #333333; stroke-width: 1.25; stroke-linejoin: miter"/>
   </g>
   <g id="patch_13">
    <path d="M 461.359968 343.4099
Q 544.139011 343.4099 625.352807 343.4099
" clip-path="url(#p31b380183e)" style="fill: none; stroke: #333333; stroke-width: 1.4; stroke-linecap: round"/>
    <path d="M 619.752807 340.6099
L 625.352807 343.4099
L 619.752807 346.2099
" clip-path="url(#p31b380183e)" style="fill: none; stroke: #333333; stroke-width: 1.4; stroke-linecap: round"/>
   </g>
   <g id="patch_14">
    <path d="M 77.2848 428.94678
L 479.7072 428.94678
L 479.7072 371.52342
L 77.2848 371.52342
z
" clip-path="url(#p31b380183e)" style="fill: #f6f7fb; stroke: #333333; stroke-width: 1.25; stroke-linejoin: miter"/>
   </g>
   <g id="patch_15">
    <path d="M 608.5728 428.94678
L 1056.2112 428.94678
L 1056.2112 371.52342
L 608.5728 371.52342
z
" clip-path="url(#p31b380183e)" style="fill: #fff4d6; stroke: #333333; stroke-width: 1.25; stroke-linejoin: miter"/>
   </g>
   <g id="patch_16">
    <path d="M 461.359968 400.2351
Q 544.139011 400.2351 625.352807 400.2351
" clip-path="url(#p31b380183e)" style="fill: none; stroke: #333333; stroke-width: 1.4; stroke-linecap: round"/>
    <path d="M 619.752807 397.4351
L 625.352807 400.2351
L 619.752807 403.0351
" clip-path="url(#p31b380183e)" style="fill: none; stroke: #333333; stroke-width: 1.4; stroke-linecap: round"/>
   </g>
   <g id="patch_17">
    <path d="M 77.2848 485.77198
L 479.7072 485.77198
L 479.7072 428.34862
L 77.2848 428.34862
z
" clip-path="url(#p31b380183e)" style="fill: #f6f7fb; stroke: #333333; stroke-width: 1.25; stroke-linejoin: miter"/>
   </g>
   <g id="patch_18">
    <path d="M 608.5728 485.77198
L 1056.2112 485.77198
L 1056.2112 428.34862
L 608.5728 428.34862
z
" clip-path="url(#p31b380183e)" style="fill: #fff4d6; stroke: #333333; stroke-width: 1.25; stroke-linejoin: miter"/>
   </g>
   <g id="patch_19">
    <path d="M 461.359968 457.0603
Q 544.139011 457.0603 625.352807 457.0603
" clip-path="url(#p31b380183e)" style="fill: none; stroke: #333333; stroke-width: 1.4; stroke-linecap: round"/>
    <path d="M 619.752807 454.2603
L 625.352807 457.0603
L 619.752807 459.8603
" clip-path="url(#p31b380183e)" style="fill: none; stroke: #333333; stroke-width: 1.4; stroke-linecap: round"/>
   </g>
   <g id="patch_20">
    <path d="M 77.2848 542.59718
L 479.7072 542.59718
L 479.7072 485.17382
L 77.2848 485.17382
z
" clip-path="url(#p31b380183e)" style="fill: #f6f7fb; stroke: #333333; stroke-width: 1.25; stroke-linejoin: miter"/>
   </g>
   <g id="patch_21">
    <path d="M 608.5728 542.59718
L 1056.2112 542.59718
L 1056.2112 485.17382
L 608.5728 485.17382
z
" clip-path="url(#p31b380183e)" style="fill: #fff4d6; stroke: #333333; stroke-width: 1.25; stroke-linejoin: miter"/>
   </g>
   <g id="patch_22">
    <path d="M 461.359968 513.8855
Q 544.139011 513.8855 625.352807 513.8855
" clip-path="url(#p31b380183e)" style="fill: none; stroke: #333333; stroke-width: 1.4; stroke-linecap: round"/>
    <path d="M 619.752807 511.0855
L 625.352807 513.8855
L 619.752807 516.6855
" clip-path="url(#p31b380183e)" style="fill: none; stroke: #333333; stroke-width: 1.4; stroke-linecap: round"/>
   </g>
   <g id="text_1">
    <!-- Finance / macro -->
    <g transform="translate(230.881312 176.051956) scale(0.12 -0.12)">
     <defs>
      <path id="DejaVuSans-29" d="M 628 4666
L 3309 4666
L 3309 4134
L 1259 4134
L 1259 2759
L 3109 2759
L 3109 2228
L 1259 2228
L 1259 0
L 628 0
L 628 4666
z
" transform="scale(0.015625)"/>
      <path id="DejaVuSans-4c" d="M 603 3500
L 1178 3500
L 1178 0
L 603 0
L 603 3500
z
M 603 4863
L 1178 4863
L 1178 4134
L 603 4134
L 603 4863
z
" transform="scale(0.015625)"/>
      <path id="DejaVuSans-51" d="M 3513 2113
L 3513 0
L 2938 0
L 2938 2094
Q 2938 2591 2744 2837
Q 2550 3084 2163 3084
Q 1697 3084 1428 2787
Q 1159 2491 1159 1978
L 1159 0
L 581 0
L 581 3500
L 1159 3500
L 1159 2956
Q 1366 3272 1645 3428
Q 1925 3584 2291 3584
Q 2894 3584 3203 3211
Q 3513 2838 3513 2113
z
" transform="scale(0.015625)"/>
      <path id="DejaVuSans-44" d="M 2194 1759
Q 1497 1759 1228 1600
Q 959 1441 959 1056
Q 959 750 1161 570
Q 1363 391 1709 391
Q 2188 391 2477 730
Q 2766 1069 2766 1631
L 2766 1759
L 2194 1759
z
M 3341 1997
L 3341 0
L 2766 0
L 2766 531
Q 2569 213 2275 61
Q 1981 -91 1556 -91
Q 1019 -91 701 211
Q 384 513 384 1019
Q 384 1609 779 1909
Q 1175 2209 1959 2209
L 2766 2209
L 2766 2266
Q 2766 2663 2505 2880
Q 2244 3097 1772 3097
Q 1472 3097 1187 3025
Q 903 2953 641 2809
L 641 3341
Q 956 3463 1253 3523
Q 1550 3584 1831 3584
Q 2591 3584 2966 3190
Q 3341 2797 3341 1997
z
" transform="scale(0.015625)"/>
      <path id="DejaVuSans-46" d="M 3122 3366
L 3122 2828
Q 2878 2963 2633 3030
Q 2388 3097 2138 3097
Q 1578 3097 1268 2742
Q 959 2388 959 1747
Q 959 1106 1268 751
Q 1578 397 2138 397
Q 2388 397 2633 464
Q 2878 531 3122 666
L 3122 134
Q 2881 22 2623 -34
Q 2366 -91 2075 -91
Q 1284 -91 818 406
Q 353 903 353 1747
Q 353 2603 823 3093
Q 1294 3584 2113 3584
Q 2378 3584 2631 3529
Q 2884 3475 3122 3366
z
" transform="scale(0.015625)"/>
      <path id="DejaVuSans-48" d="M 3597 1894
L 3597 1613
L 953 1613
Q 991 1019 1311 708
Q 1631 397 2203 397
Q 2534 397 2845 478
Q 3156 559 3463 722
L 3463 178
Q 3153 47 2828 -22
Q 2503 -91 2169 -91
Q 1331 -91 842 396
Q 353 884 353 1716
Q 353 2575 817 3079
Q 1281 3584 2069 3584
Q 2775 3584 3186 3129
Q 3597 2675 3597 1894
z
M 3022 2063
Q 3016 2534 2758 2815
Q 2500 3097 2075 3097
Q 1594 3097 1305 2825
Q 1016 2553 972 2059
L 3022 2063
z
" transform="scale(0.015625)"/>
      <path id="DejaVuSans-3" transform="scale(0.015625)"/>
      <path id="DejaVuSans-12" d="M 1625 4666
L 2156 4666
L 531 -594
L 0 -594
L 1625 4666
z
" transform="scale(0.015625)"/>
      <path id="DejaVuSans-50" d="M 3328 2828
Q 3544 3216 3844 3400
Q 4144 3584 4550 3584
Q 5097 3584 5394 3201
Q 5691 2819 5691 2113
L 5691 0
L 5113 0
L 5113 2094
Q 5113 2597 4934 2840
Q 4756 3084 4391 3084
Q 3944 3084 3684 2787
Q 3425 2491 3425 1978
L 3425 0
L 2847 0
L 2847 2094
Q 2847 2600 2669 2842
Q 2491 3084 2119 3084
Q 1678 3084 1418 2786
Q 1159 2488 1159 1978
L 1159 0
L 581 0
L 581 3500
L 1159 3500
L 1159 2956
Q 1356 3278 1631 3431
Q 1906 3584 2284 3584
Q 2666 3584 2933 3390
Q 3200 3197 3328 2828
z
" transform="scale(0.015625)"/>
      <path id="DejaVuSans-55" d="M 2631 2963
Q 2534 3019 2420 3045
Q 2306 3072 2169 3072
Q 1681 3072 1420 2755
Q 1159 2438 1159 1844
L 1159 0
L 581 0
L 581 3500
L 1159 3500
L 1159 2956
Q 1341 3275 1631 3429
Q 1922 3584 2338 3584
Q 2397 3584 2469 3576
Q 2541 3569 2628 3553
L 2631 2963
z
" transform="scale(0.015625)"/>
      <path id="DejaVuSans-52" d="M 1959 3097
Q 1497 3097 1228 2736
Q 959 2375 959 1747
Q 959 1119 1226 758
Q 1494 397 1959 397
Q 2419 397 2687 759
Q 2956 1122 2956 1747
Q 2956 2369 2687 2733
Q 2419 3097 1959 3097
z
M 1959 3584
Q 2709 3584 3137 3096
Q 3566 2609 3566 1747
Q 3566 888 3137 398
Q 2709 -91 1959 -91
Q 1206 -91 779 398
Q 353 888 353 1747
Q 353 2609 779 3096
Q 1206 3584 1959 3584
z
" transform="scale(0.015625)"/>
     </defs>
     <use xlink:href="#DejaVuSans-29"/>
     <use xlink:href="#DejaVuSans-4c" transform="translate(50.234375 0)"/>
     <use xlink:href="#DejaVuSans-51" transform="translate(78.015625 0)"/>
     <use xlink:href="#DejaVuSans-44" transform="translate(141.390625 0)"/>
     <use xlink:href="#DejaVuSans-51" transform="translate(202.671875 0)"/>
     <use xlink:href="#DejaVuSans-46" transform="translate(266.046875 0)"/>
     <use xlink:href="#DejaVuSans-48" transform="translate(321.03125 0)"/>
     <use xlink:href="#DejaVuSans-3" transform="translate(382.5625 0)"/>
     <use xlink:href="#DejaVuSans-12" transform="translate(414.34375 0)"/>
     <use xlink:href="#DejaVuSans-3" transform="translate(448.03125 0)"/>
     <use xlink:href="#DejaVuSans-50" transform="translate(479.8125 0)"/>
     <use xlink:href="#DejaVuSans-44" transform="translate(577.21875 0)"/>
     <use xlink:href="#DejaVuSans-46" transform="translate(638.5 0)"/>
     <use xlink:href="#DejaVuSans-55" transform="translate(693.484375 0)"/>
     <use xlink:href="#DejaVuSans-52" transform="translate(732.390625 0)"/>
    </g>
   </g>
   <g id="text_2">
    <!-- reporting period vs filing date -->
    <g transform="translate(750.554578 175.792152) scale(0.11 -0.11)">
     <defs>
      <path id="DejaVuSans-53" d="M 1159 525
L 1159 -1331
L 581 -1331
L 581 3500
L 1159 3500
L 1159 2969
Q 1341 3281 1617 3432
Q 1894 3584 2278 3584
Q 2916 3584 3314 3078
Q 3713 2572 3713 1747
Q 3713 922 3314 415
Q 2916 -91 2278 -91
Q 1894 -91 1617 61
Q 1341 213 1159 525
z
M 3116 1747
Q 3116 2381 2855 2742
Q 2594 3103 2138 3103
Q 1681 3103 1420 2742
Q 1159 2381 1159 1747
Q 1159 1113 1420 752
Q 1681 391 2138 391
Q 2594 391 2855 752
Q 3116 1113 3116 1747
z
" transform="scale(0.015625)"/>
      <path id="DejaVuSans-57" d="M 1172 4494
L 1172 3500
L 2356 3500
L 2356 3053
L 1172 3053
L 1172 1153
Q 1172 725 1289 603
Q 1406 481 1766 481
L 2356 481
L 2356 0
L 1766 0
Q 1100 0 847 248
Q 594 497 594 1153
L 594 3053
L 172 3053
L 172 3500
L 594 3500
L 594 4494
L 1172 4494
z
" transform="scale(0.015625)"/>
      <path id="DejaVuSans-4a" d="M 2906 1791
Q 2906 2416 2648 2759
Q 2391 3103 1925 3103
Q 1463 3103 1205 2759
Q 947 2416 947 1791
Q 947 1169 1205 825
Q 1463 481 1925 481
Q 2391 481 2648 825
Q 2906 1169 2906 1791
z
M 3481 434
Q 3481 -459 3084 -895
Q 2688 -1331 1869 -1331
Q 1566 -1331 1297 -1286
Q 1028 -1241 775 -1147
L 775 -588
Q 1028 -725 1275 -790
Q 1522 -856 1778 -856
Q 2344 -856 2625 -561
Q 2906 -266 2906 331
L 2906 616
Q 2728 306 2450 153
Q 2172 0 1784 0
Q 1141 0 747 490
Q 353 981 353 1791
Q 353 2603 747 3093
Q 1141 3584 1784 3584
Q 2172 3584 2450 3431
Q 2728 3278 2906 2969
L 2906 3500
L 3481 3500
L 3481 434
z
" transform="scale(0.015625)"/>
      <path id="DejaVuSans-47" d="M 2906 2969
L 2906 4863
L 3481 4863
L 3481 0
L 2906 0
L 2906 525
Q 2725 213 2448 61
Q 2172 -91 1784 -91
Q 1150 -91 751 415
Q 353 922 353 1747
Q 353 2572 751 3078
Q 1150 3584 1784 3584
Q 2172 3584 2448 3432
Q 2725 3281 2906 2969
z
M 947 1747
Q 947 1113 1208 752
Q 1469 391 1925 391
Q 2381 391 2643 752
Q 2906 1113 2906 1747
Q 2906 2381 2643 2742
Q 2381 3103 1925 3103
Q 1469 3103 1208 2742
Q 947 2381 947 1747
z
" transform="scale(0.015625)"/>
      <path id="DejaVuSans-59" d="M 191 3500
L 800 3500
L 1894 563
L 2988 3500
L 3597 3500
L 2284 0
L 1503 0
L 191 3500
z
" transform="scale(0.015625)"/>
      <path id="DejaVuSans-56" d="M 2834 3397
L 2834 2853
Q 2591 2978 2328 3040
Q 2066 3103 1784 3103
Q 1356 3103 1142 2972
Q 928 2841 928 2578
Q 928 2378 1081 2264
Q 1234 2150 1697 2047
L 1894 2003
Q 2506 1872 2764 1633
Q 3022 1394 3022 966
Q 3022 478 2636 193
Q 2250 -91 1575 -91
Q 1294 -91 989 -36
Q 684 19 347 128
L 347 722
Q 666 556 975 473
Q 1284 391 1588 391
Q 1994 391 2212 530
Q 2431 669 2431 922
Q 2431 1156 2273 1281
Q 2116 1406 1581 1522
L 1381 1569
Q 847 1681 609 1914
Q 372 2147 372 2553
Q 372 3047 722 3315
Q 1072 3584 1716 3584
Q 2034 3584 2315 3537
Q 2597 3491 2834 3397
z
" transform="scale(0.015625)"/>
      <path id="DejaVuSans-13af" d="M 3431 3500
L 3431 0
L 2853 0
L 2853 3053
L 1275 3053
L 1275 0
L 697 0
L 697 3053
L 147 3053
L 147 3500
L 697 3500
L 697 3744
Q 697 4316 967 4589
Q 1238 4863 1797 4863
L 2375 4863
L 2375 4384
L 1825 4384
Q 1516 4384 1395 4259
Q 1275 4134 1275 3809
L 1275 3500
L 3431 3500
z
M 2853 4856
L 3431 4856
L 3431 4128
L 2853 4128
L 2853 4856
z
" transform="scale(0.015625)"/>
      <path id="DejaVuSans-4f" d="M 603 4863
L 1178 4863
L 1178 0
L 603 0
L 603 4863
z
" transform="scale(0.015625)"/>
     </defs>
     <use xlink:href="#DejaVuSans-55"/>
     <use xlink:href="#DejaVuSans-48" transform="translate(38.90625 0)"/>
     <use xlink:href="#DejaVuSans-53" transform="translate(100.4375 0)"/>
     <use xlink:href="#DejaVuSans-52" transform="translate(163.921875 0)"/>
     <use xlink:href="#DejaVuSans-55" transform="translate(225.109375 0)"/>
     <use xlink:href="#DejaVuSans-57" transform="translate(266.21875 0)"/>
     <use xlink:href="#DejaVuSans-4c" transform="translate(305.421875 0)"/>
     <use xlink:href="#DejaVuSans-51" transform="translate(333.203125 0)"/>
     <use xlink:href="#DejaVuSans-4a" transform="translate(396.578125 0)"/>
     <use xlink:href="#DejaVuSans-3" transform="translate(460.0625 0)"/>
     <use xlink:href="#DejaVuSans-53" transform="translate(491.84375 0)"/>
     <use xlink:href="#DejaVuSans-48" transform="translate(555.328125 0)"/>
     <use xlink:href="#DejaVuSans-55" transform="translate(616.859375 0)"/>
     <use xlink:href="#DejaVuSans-4c" transform="translate(657.96875 0)"/>
     <use xlink:href="#DejaVuSans-52" transform="translate(685.75 0)"/>
     <use xlink:href="#DejaVuSans-47" transform="translate(746.9375 0)"/>
     <use xlink:href="#DejaVuSans-3" transform="translate(810.421875 0)"/>
     <use xlink:href="#DejaVuSans-59" transform="translate(842.203125 0)"/>
     <use xlink:href="#DejaVuSans-56" transform="translate(901.390625 0)"/>
     <use xlink:href="#DejaVuSans-3" transform="translate(953.484375 0)"/>
     <use xlink:href="#DejaVuSans-13af" transform="translate(985.265625 0)"/>
     <use xlink:href="#DejaVuSans-4f" transform="translate(1048.25 0)"/>
     <use xlink:href="#DejaVuSans-4c" transform="translate(1076.03125 0)"/>
     <use xlink:href="#DejaVuSans-51" transform="translate(1103.8125 0)"/>
     <use xlink:href="#DejaVuSans-4a" transform="translate(1167.1875 0)"/>
     <use xlink:href="#DejaVuSans-3" transform="translate(1230.671875 0)"/>
     <use xlink:href="#DejaVuSans-47" transform="translate(1262.453125 0)"/>
     <use xlink:href="#DejaVuSans-44" transform="translate(1325.9375 0)"/>
     <use xlink:href="#DejaVuSans-57" transform="translate(1387.21875 0)"/>
     <use xlink:href="#DejaVuSans-48" transform="translate(1426.421875 0)"/>
    </g>
   </g>
   <g id="text_3">
    <!-- Legal / regulatory -->
    <g transform="translate(225.555375 232.877156) scale(0.12 -0.12)">
     <defs>
      <path id="DejaVuSans-2f" d="M 628 4666
L 1259 4666
L 1259 531
L 3531 531
L 3531 0
L 628 0
L 628 4666
z
" transform="scale(0.015625)"/>
      <path id="DejaVuSans-58" d="M 544 1381
L 544 3500
L 1119 3500
L 1119 1403
Q 1119 906 1312 657
Q 1506 409 1894 409
Q 2359 409 2629 706
Q 2900 1003 2900 1516
L 2900 3500
L 3475 3500
L 3475 0
L 2900 0
L 2900 538
Q 2691 219 2414 64
Q 2138 -91 1772 -91
Q 1169 -91 856 284
Q 544 659 544 1381
z
M 1991 3584
L 1991 3584
z
" transform="scale(0.015625)"/>
      <path id="DejaVuSans-5c" d="M 2059 -325
Q 1816 -950 1584 -1140
Q 1353 -1331 966 -1331
L 506 -1331
L 506 -850
L 844 -850
Q 1081 -850 1212 -737
Q 1344 -625 1503 -206
L 1606 56
L 191 3500
L 800 3500
L 1894 763
L 2988 3500
L 3597 3500
L 2059 -325
z
" transform="scale(0.015625)"/>
     </defs>
     <use xlink:href="#DejaVuSans-2f"/>
     <use xlink:href="#DejaVuSans-48" transform="translate(53.96875 0)"/>
     <use xlink:href="#DejaVuSans-4a" transform="translate(115.5 0)"/>
     <use xlink:href="#DejaVuSans-44" transform="translate(178.984375 0)"/>
     <use xlink:href="#DejaVuSans-4f" transform="translate(240.265625 0)"/>
     <use xlink:href="#DejaVuSans-3" transform="translate(268.046875 0)"/>
     <use xlink:href="#DejaVuSans-12" transform="translate(299.828125 0)"/>
     <use xlink:href="#DejaVuSans-3" transform="translate(333.515625 0)"/>
     <use xlink:href="#DejaVuSans-55" transform="translate(365.296875 0)"/>
     <use xlink:href="#DejaVuSans-48" transform="translate(404.203125 0)"/>
     <use xlink:href="#DejaVuSans-4a" transform="translate(465.734375 0)"/>
     <use xlink:href="#DejaVuSans-58" transform="translate(529.21875 0)"/>
     <use xlink:href="#DejaVuSans-4f" transform="translate(592.59375 0)"/>
     <use xlink:href="#DejaVuSans-44" transform="translate(620.375 0)"/>
     <use xlink:href="#DejaVuSans-57" transform="translate(681.65625 0)"/>
     <use xlink:href="#DejaVuSans-52" transform="translate(720.859375 0)"/>
     <use xlink:href="#DejaVuSans-55" transform="translate(782.046875 0)"/>
     <use xlink:href="#DejaVuSans-5c" transform="translate(823.15625 0)"/>
    </g>
   </g>
   <g id="text_4">
    <!-- effective date vs publication date -->
    <g transform="translate(740.114891 232.617352) scale(0.11 -0.11)">
     <defs>
      <path id="DejaVuSans-13ae" d="M 4531 4863
L 4531 4384
L 3981 4384
Q 3672 4384 3551 4259
Q 3431 4134 3431 3809
L 3431 3500
L 4378 3500
L 4378 3053
L 3431 3053
L 3431 0
L 2853 0
L 2853 3053
L 1275 3053
L 1275 0
L 697 0
L 697 3053
L 147 3053
L 147 3500
L 697 3500
L 697 3744
Q 697 4328 969 4595
Q 1241 4863 1831 4863
L 2375 4863
L 2375 4384
L 1825 4384
Q 1516 4384 1394 4259
Q 1275 4134 1275 3809
L 1275 3500
L 2853 3500
L 2853 3744
Q 2853 4328 3125 4595
Q 3397 4863 3988 4863
L 4531 4863
z
" transform="scale(0.015625)"/>
      <path id="DejaVuSans-45" d="M 3116 1747
Q 3116 2381 2855 2742
Q 2594 3103 2138 3103
Q 1681 3103 1420 2742
Q 1159 2381 1159 1747
Q 1159 1113 1420 752
Q 1681 391 2138 391
Q 2594 391 2855 752
Q 3116 1113 3116 1747
z
M 1159 2969
Q 1341 3281 1617 3432
Q 1894 3584 2278 3584
Q 2916 3584 3314 3078
Q 3713 2572 3713 1747
Q 3713 922 3314 415
Q 2916 -91 2278 -91
Q 1894 -91 1617 61
Q 1341 213 1159 525
L 1159 0
L 581 0
L 581 4863
L 1159 4863
L 1159 2969
z
" transform="scale(0.015625)"/>
     </defs>
     <use xlink:href="#DejaVuSans-48"/>
     <use xlink:href="#DejaVuSans-13ae" transform="translate(61.53125 0)"/>
     <use xlink:href="#DejaVuSans-48" transform="translate(130.421875 0)"/>
     <use xlink:href="#DejaVuSans-46" transform="translate(191.953125 0)"/>
     <use xlink:href="#DejaVuSans-57" transform="translate(246.9375 0)"/>
     <use xlink:href="#DejaVuSans-4c" transform="translate(286.140625 0)"/>
     <use xlink:href="#DejaVuSans-59" transform="translate(313.921875 0)"/>
     <use xlink:href="#DejaVuSans-48" transform="translate(373.109375 0)"/>
     <use xlink:href="#DejaVuSans-3" transform="translate(434.640625 0)"/>
     <use xlink:href="#DejaVuSans-47" transform="translate(466.421875 0)"/>
     <use xlink:href="#DejaVuSans-44" transform="translate(529.90625 0)"/>
     <use xlink:href="#DejaVuSans-57" transform="translate(591.1875 0)"/>
     <use xlink:href="#DejaVuSans-48" transform="translate(630.390625 0)"/>
     <use xlink:href="#DejaVuSans-3" transform="translate(691.921875 0)"/>
     <use xlink:href="#DejaVuSans-59" transform="translate(723.703125 0)"/>
     <use xlink:href="#DejaVuSans-56" transform="translate(782.890625 0)"/>
     <use xlink:href="#DejaVuSans-3" transform="translate(834.984375 0)"/>
     <use xlink:href="#DejaVuSans-53" transform="translate(866.765625 0)"/>
     <use xlink:href="#DejaVuSans-58" transform="translate(930.25 0)"/>
     <use xlink:href="#DejaVuSans-45" transform="translate(993.625 0)"/>
     <use xlink:href="#DejaVuSans-4f" transform="translate(1057.109375 0)"/>
     <use xlink:href="#DejaVuSans-4c" transform="translate(1084.890625 0)"/>
     <use xlink:href="#DejaVuSans-46" transform="translate(1112.671875 0)"/>
     <use xlink:href="#DejaVuSans-44" transform="translate(1167.65625 0)"/>
     <use xlink:href="#DejaVuSans-57" transform="translate(1228.9375 0)"/>
     <use xlink:href="#DejaVuSans-4c" transform="translate(1268.140625 0)"/>
     <use xlink:href="#DejaVuSans-52" transform="translate(1295.921875 0)"/>
     <use xlink:href="#DejaVuSans-51" transform="translate(1357.109375 0)"/>
     <use xlink:href="#DejaVuSans-3" transform="translate(1420.484375 0)"/>
     <use xlink:href="#DejaVuSans-47" transform="translate(1452.265625 0)"/>
     <use xlink:href="#DejaVuSans-44" transform="translate(1515.75 0)"/>
     <use xlink:href="#DejaVuSans-57" transform="translate(1577.03125 0)"/>
     <use xlink:href="#DejaVuSans-48" transform="translate(1616.234375 0)"/>
    </g>
   </g>
   <g id="text_5">
    <!-- Enterprise search -->
    <g transform="translate(225.794437 289.702356) scale(0.12 -0.12)">
     <defs>
      <path id="DejaVuSans-28" d="M 628 4666
L 3578 4666
L 3578 4134
L 1259 4134
L 1259 2753
L 3481 2753
L 3481 2222
L 1259 2222
L 1259 531
L 3634 531
L 3634 0
L 628 0
L 628 4666
z
" transform="scale(0.015625)"/>
      <path id="DejaVuSans-4b" d="M 3513 2113
L 3513 0
L 2938 0
L 2938 2094
Q 2938 2591 2744 2837
Q 2550 3084 2163 3084
Q 1697 3084 1428 2787
Q 1159 2491 1159 1978
L 1159 0
L 581 0
L 581 4863
L 1159 4863
L 1159 2956
Q 1366 3272 1645 3428
Q 1925 3584 2291 3584
Q 2894 3584 3203 3211
Q 3513 2838 3513 2113
z
" transform="scale(0.015625)"/>
     </defs>
     <use xlink:href="#DejaVuSans-28"/>
     <use xlink:href="#DejaVuSans-51" transform="translate(63.1875 0)"/>
     <use xlink:href="#DejaVuSans-57" transform="translate(126.5625 0)"/>
     <use xlink:href="#DejaVuSans-48" transform="translate(165.765625 0)"/>
     <use xlink:href="#DejaVuSans-55" transform="translate(227.296875 0)"/>
     <use xlink:href="#DejaVuSans-53" transform="translate(268.40625 0)"/>
     <use xlink:href="#DejaVuSans-55" transform="translate(331.890625 0)"/>
     <use xlink:href="#DejaVuSans-4c" transform="translate(373 0)"/>
     <use xlink:href="#DejaVuSans-56" transform="translate(400.78125 0)"/>
     <use xlink:href="#DejaVuSans-48" transform="translate(452.875 0)"/>
     <use xlink:href="#DejaVuSans-3" transform="translate(514.40625 0)"/>
     <use xlink:href="#DejaVuSans-56" transform="translate(546.1875 0)"/>
     <use xlink:href="#DejaVuSans-48" transform="translate(598.28125 0)"/>
     <use xlink:href="#DejaVuSans-44" transform="translate(659.8125 0)"/>
     <use xlink:href="#DejaVuSans-55" transform="translate(721.09375 0)"/>
     <use xlink:href="#DejaVuSans-46" transform="translate(760 0)"/>
     <use xlink:href="#DejaVuSans-4b" transform="translate(814.984375 0)"/>
    </g>
   </g>
   <g id="text_6">
    <!-- revision date vs fact date -->
    <g transform="translate(762.436297 289.442552) scale(0.11 -0.11)">
     <defs>
      <path id="DejaVuSans-49" d="M 2375 4863
L 2375 4384
L 1825 4384
Q 1516 4384 1395 4259
Q 1275 4134 1275 3809
L 1275 3500
L 2222 3500
L 2222 3053
L 1275 3053
L 1275 0
L 697 0
L 697 3053
L 147 3053
L 147 3500
L 697 3500
L 697 3744
Q 697 4328 969 4595
Q 1241 4863 1831 4863
L 2375 4863
z
" transform="scale(0.015625)"/>
     </defs>
     <use xlink:href="#DejaVuSans-55"/>
     <use xlink:href="#DejaVuSans-48" transform="translate(38.90625 0)"/>
     <use xlink:href="#DejaVuSans-59" transform="translate(100.4375 0)"/>
     <use xlink:href="#DejaVuSans-4c" transform="translate(159.625 0)"/>
     <use xlink:href="#DejaVuSans-56" transform="translate(187.40625 0)"/>
     <use xlink:href="#DejaVuSans-4c" transform="translate(239.5 0)"/>
     <use xlink:href="#DejaVuSans-52" transform="translate(267.28125 0)"/>
     <use xlink:href="#DejaVuSans-51" transform="translate(328.46875 0)"/>
     <use xlink:href="#DejaVuSans-3" transform="translate(391.84375 0)"/>
     <use xlink:href="#DejaVuSans-47" transform="translate(423.625 0)"/>
     <use xlink:href="#DejaVuSans-44" transform="translate(487.109375 0)"/>
     <use xlink:href="#DejaVuSans-57" transform="translate(548.390625 0)"/>
     <use xlink:href="#DejaVuSans-48" transform="translate(587.59375 0)"/>
     <use xlink:href="#DejaVuSans-3" transform="translate(649.125 0)"/>
     <use xlink:href="#DejaVuSans-59" transform="translate(680.90625 0)"/>
     <use xlink:href="#DejaVuSans-56" transform="translate(740.09375 0)"/>
     <use xlink:href="#DejaVuSans-3" transform="translate(792.1875 0)"/>
     <use xlink:href="#DejaVuSans-49" transform="translate(823.96875 0)"/>
     <use xlink:href="#DejaVuSans-44" transform="translate(859.171875 0)"/>
     <use xlink:href="#DejaVuSans-46" transform="translate(920.453125 0)"/>
     <use xlink:href="#DejaVuSans-57" transform="translate(975.4375 0)"/>
     <use xlink:href="#DejaVuSans-3" transform="translate(1014.640625 0)"/>
     <use xlink:href="#DejaVuSans-47" transform="translate(1046.421875 0)"/>
     <use xlink:href="#DejaVuSans-44" transform="translate(1109.90625 0)"/>
     <use xlink:href="#DejaVuSans-57" transform="translate(1171.1875 0)"/>
     <use xlink:href="#DejaVuSans-48" transform="translate(1210.390625 0)"/>
    </g>
   </g>
   <g id="text_7">
    <!-- Scientific literature -->
    <g transform="translate(221.520375 346.527556) scale(0.12 -0.12)">
     <defs>
      <path id="DejaVuSans-36" d="M 3425 4513
L 3425 3897
Q 3066 4069 2747 4153
Q 2428 4238 2131 4238
Q 1616 4238 1336 4038
Q 1056 3838 1056 3469
Q 1056 3159 1242 3001
Q 1428 2844 1947 2747
L 2328 2669
Q 3034 2534 3370 2195
Q 3706 1856 3706 1288
Q 3706 609 3251 259
Q 2797 -91 1919 -91
Q 1588 -91 1214 -16
Q 841 59 441 206
L 441 856
Q 825 641 1194 531
Q 1563 422 1919 422
Q 2459 422 2753 634
Q 3047 847 3047 1241
Q 3047 1584 2836 1778
Q 2625 1972 2144 2069
L 1759 2144
Q 1053 2284 737 2584
Q 422 2884 422 3419
Q 422 4038 858 4394
Q 1294 4750 2059 4750
Q 2388 4750 2728 4690
Q 3069 4631 3425 4513
z
" transform="scale(0.015625)"/>
     </defs>
     <use xlink:href="#DejaVuSans-36"/>
     <use xlink:href="#DejaVuSans-46" transform="translate(63.484375 0)"/>
     <use xlink:href="#DejaVuSans-4c" transform="translate(118.46875 0)"/>
     <use xlink:href="#DejaVuSans-48" transform="translate(146.25 0)"/>
     <use xlink:href="#DejaVuSans-51" transform="translate(207.78125 0)"/>
     <use xlink:href="#DejaVuSans-57" transform="translate(271.15625 0)"/>
     <use xlink:href="#DejaVuSans-4c" transform="translate(310.359375 0)"/>
     <use xlink:href="#DejaVuSans-13af" transform="translate(338.140625 0)"/>
     <use xlink:href="#DejaVuSans-46" transform="translate(401.125 0)"/>
     <use xlink:href="#DejaVuSans-3" transform="translate(456.109375 0)"/>
     <use xlink:href="#DejaVuSans-4f" transform="translate(487.890625 0)"/>
     <use xlink:href="#DejaVuSans-4c" transform="translate(515.671875 0)"/>
     <use xlink:href="#DejaVuSans-57" transform="translate(543.453125 0)"/>
     <use xlink:href="#DejaVuSans-48" transform="translate(582.65625 0)"/>
     <use xlink:href="#DejaVuSans-55" transform="translate(644.1875 0)"/>
     <use xlink:href="#DejaVuSans-44" transform="translate(685.296875 0)"/>
     <use xlink:href="#DejaVuSans-57" transform="translate(746.578125 0)"/>
     <use xlink:href="#DejaVuSans-58" transform="translate(785.78125 0)"/>
     <use xlink:href="#DejaVuSans-55" transform="translate(849.15625 0)"/>
     <use xlink:href="#DejaVuSans-48" transform="translate(888.0625 0)"/>
    </g>
   </g>
   <g id="text_8">
    <!-- experiment period vs publication date -->
    <g transform="translate(727.309344 346.267752) scale(0.11 -0.11)">
     <defs>
      <path id="DejaVuSans-5b" d="M 3513 3500
L 2247 1797
L 3578 0
L 2900 0
L 1881 1375
L 863 0
L 184 0
L 1544 1831
L 300 3500
L 978 3500
L 1906 2253
L 2834 3500
L 3513 3500
z
" transform="scale(0.015625)"/>
     </defs>
     <use xlink:href="#DejaVuSans-48"/>
     <use xlink:href="#DejaVuSans-5b" transform="translate(59.78125 0)"/>
     <use xlink:href="#DejaVuSans-53" transform="translate(118.96875 0)"/>
     <use xlink:href="#DejaVuSans-48" transform="translate(182.453125 0)"/>
     <use xlink:href="#DejaVuSans-55" transform="translate(243.984375 0)"/>
     <use xlink:href="#DejaVuSans-4c" transform="translate(285.09375 0)"/>
     <use xlink:href="#DejaVuSans-50" transform="translate(312.875 0)"/>
     <use xlink:href="#DejaVuSans-48" transform="translate(410.28125 0)"/>
     <use xlink:href="#DejaVuSans-51" transform="translate(471.8125 0)"/>
     <use xlink:href="#DejaVuSans-57" transform="translate(535.1875 0)"/>
     <use xlink:href="#DejaVuSans-3" transform="translate(574.390625 0)"/>
     <use xlink:href="#DejaVuSans-53" transform="translate(606.171875 0)"/>
     <use xlink:href="#DejaVuSans-48" transform="translate(669.65625 0)"/>
     <use xlink:href="#DejaVuSans-55" transform="translate(731.1875 0)"/>
     <use xlink:href="#DejaVuSans-4c" transform="translate(772.296875 0)"/>
     <use xlink:href="#DejaVuSans-52" transform="translate(800.078125 0)"/>
     <use xlink:href="#DejaVuSans-47" transform="translate(861.265625 0)"/>
     <use xlink:href="#DejaVuSans-3" transform="translate(924.75 0)"/>
     <use xlink:href="#DejaVuSans-59" transform="translate(956.53125 0)"/>
     <use xlink:href="#DejaVuSans-56" transform="translate(1015.71875 0)"/>
     <use xlink:href="#DejaVuSans-3" transform="translate(1067.8125 0)"/>
     <use xlink:href="#DejaVuSans-53" transform="translate(1099.59375 0)"/>
     <use xlink:href="#DejaVuSans-58" transform="translate(1163.078125 0)"/>
     <use xlink:href="#DejaVuSans-45" transform="translate(1226.453125 0)"/>
     <use xlink:href="#DejaVuSans-4f" transform="translate(1289.9375 0)"/>
     <use xlink:href="#DejaVuSans-4c" transform="translate(1317.71875 0)"/>
     <use xlink:href="#DejaVuSans-46" transform="translate(1345.5 0)"/>
     <use xlink:href="#DejaVuSans-44" transform="translate(1400.484375 0)"/>
     <use xlink:href="#DejaVuSans-57" transform="translate(1461.765625 0)"/>
     <use xlink:href="#DejaVuSans-4c" transform="translate(1500.96875 0)"/>
     <use xlink:href="#DejaVuSans-52" transform="translate(1528.75 0)"/>
     <use xlink:href="#DejaVuSans-51" transform="translate(1589.9375 0)"/>
     <use xlink:href="#DejaVuSans-3" transform="translate(1653.3125 0)"/>
     <use xlink:href="#DejaVuSans-47" transform="translate(1685.09375 0)"/>
     <use xlink:href="#DejaVuSans-44" transform="translate(1748.578125 0)"/>
     <use xlink:href="#DejaVuSans-57" transform="translate(1809.859375 0)"/>
     <use xlink:href="#DejaVuSans-48" transform="translate(1849.0625 0)"/>
    </g>
   </g>
   <g id="text_9">
    <!-- Medical literature -->
    <g transform="translate(225.899437 403.352756) scale(0.12 -0.12)">
     <defs>
      <path id="DejaVuSans-30" d="M 628 4666
L 1569 4666
L 2759 1491
L 3956 4666
L 4897 4666
L 4897 0
L 4281 0
L 4281 4097
L 3078 897
L 2444 897
L 1241 4097
L 1241 0
L 628 0
L 628 4666
z
" transform="scale(0.015625)"/>
     </defs>
     <use xlink:href="#DejaVuSans-30"/>
     <use xlink:href="#DejaVuSans-48" transform="translate(86.28125 0)"/>
     <use xlink:href="#DejaVuSans-47" transform="translate(147.8125 0)"/>
     <use xlink:href="#DejaVuSans-4c" transform="translate(211.296875 0)"/>
     <use xlink:href="#DejaVuSans-46" transform="translate(239.078125 0)"/>
     <use xlink:href="#DejaVuSans-44" transform="translate(294.0625 0)"/>
     <use xlink:href="#DejaVuSans-4f" transform="translate(355.34375 0)"/>
     <use xlink:href="#DejaVuSans-3" transform="translate(383.125 0)"/>
     <use xlink:href="#DejaVuSans-4f" transform="translate(414.90625 0)"/>
     <use xlink:href="#DejaVuSans-4c" transform="translate(442.6875 0)"/>
     <use xlink:href="#DejaVuSans-57" transform="translate(470.46875 0)"/>
     <use xlink:href="#DejaVuSans-48" transform="translate(509.671875 0)"/>
     <use xlink:href="#DejaVuSans-55" transform="translate(571.203125 0)"/>
     <use xlink:href="#DejaVuSans-44" transform="translate(612.3125 0)"/>
     <use xlink:href="#DejaVuSans-57" transform="translate(673.59375 0)"/>
     <use xlink:href="#DejaVuSans-58" transform="translate(712.796875 0)"/>
     <use xlink:href="#DejaVuSans-55" transform="translate(776.171875 0)"/>
     <use xlink:href="#DejaVuSans-48" transform="translate(815.078125 0)"/>
    </g>
   </g>
   <g id="text_10">
    <!-- guideline validity vs update date -->
    <g transform="translate(742.077703 403.092952) scale(0.11 -0.11)">
     <use xlink:href="#DejaVuSans-4a"/>
     <use xlink:href="#DejaVuSans-58" transform="translate(63.484375 0)"/>
     <use xlink:href="#DejaVuSans-4c" transform="translate(126.859375 0)"/>
     <use xlink:href="#DejaVuSans-47" transform="translate(154.640625 0)"/>
     <use xlink:href="#DejaVuSans-48" transform="translate(218.125 0)"/>
     <use xlink:href="#DejaVuSans-4f" transform="translate(279.65625 0)"/>
     <use xlink:href="#DejaVuSans-4c" transform="translate(307.4375 0)"/>
     <use xlink:href="#DejaVuSans-51" transform="translate(335.21875 0)"/>
     <use xlink:href="#DejaVuSans-48" transform="translate(398.59375 0)"/>
     <use xlink:href="#DejaVuSans-3" transform="translate(460.125 0)"/>
     <use xlink:href="#DejaVuSans-59" transform="translate(491.90625 0)"/>
     <use xlink:href="#DejaVuSans-44" transform="translate(551.09375 0)"/>
     <use xlink:href="#DejaVuSans-4f" transform="translate(612.375 0)"/>
     <use xlink:href="#DejaVuSans-4c" transform="translate(640.15625 0)"/>
     <use xlink:href="#DejaVuSans-47" transform="translate(667.9375 0)"/>
     <use xlink:href="#DejaVuSans-4c" transform="translate(731.421875 0)"/>
     <use xlink:href="#DejaVuSans-57" transform="translate(759.203125 0)"/>
     <use xlink:href="#DejaVuSans-5c" transform="translate(798.40625 0)"/>
     <use xlink:href="#DejaVuSans-3" transform="translate(857.59375 0)"/>
     <use xlink:href="#DejaVuSans-59" transform="translate(889.375 0)"/>
     <use xlink:href="#DejaVuSans-56" transform="translate(948.5625 0)"/>
     <use xlink:href="#DejaVuSans-3" transform="translate(1000.65625 0)"/>
     <use xlink:href="#DejaVuSans-58" transform="translate(1032.4375 0)"/>
     <use xlink:href="#DejaVuSans-53" transform="translate(1095.8125 0)"/>
     <use xlink:href="#DejaVuSans-47" transform="translate(1159.296875 0)"/>
     <use xlink:href="#DejaVuSans-44" transform="translate(1222.78125 0)"/>
     <use xlink:href="#DejaVuSans-57" transform="translate(1284.0625 0)"/>
     <use xlink:href="#DejaVuSans-48" transform="translate(1323.265625 0)"/>
     <use xlink:href="#DejaVuSans-3" transform="translate(1384.796875 0)"/>
     <use xlink:href="#DejaVuSans-47" transform="translate(1416.578125 0)"/>
     <use xlink:href="#DejaVuSans-44" transform="translate(1480.0625 0)"/>
     <use xlink:href="#DejaVuSans-57" transform="translate(1541.34375 0)"/>
     <use xlink:href="#DejaVuSans-48" transform="translate(1580.546875 0)"/>
    </g>
   </g>
   <g id="text_11">
    <!-- Software releases -->
    <g transform="translate(225.134437 460.177956) scale(0.12 -0.12)">
     <defs>
      <path id="DejaVuSans-5a" d="M 269 3500
L 844 3500
L 1563 769
L 2278 3500
L 2956 3500
L 3675 769
L 4391 3500
L 4966 3500
L 4050 0
L 3372 0
L 2619 2869
L 1863 0
L 1184 0
L 269 3500
z
" transform="scale(0.015625)"/>
     </defs>
     <use xlink:href="#DejaVuSans-36"/>
     <use xlink:href="#DejaVuSans-52" transform="translate(63.484375 0)"/>
     <use xlink:href="#DejaVuSans-49" transform="translate(124.671875 0)"/>
     <use xlink:href="#DejaVuSans-57" transform="translate(158.125 0)"/>
     <use xlink:href="#DejaVuSans-5a" transform="translate(197.328125 0)"/>
     <use xlink:href="#DejaVuSans-44" transform="translate(279.109375 0)"/>
     <use xlink:href="#DejaVuSans-55" transform="translate(340.390625 0)"/>
     <use xlink:href="#DejaVuSans-48" transform="translate(379.296875 0)"/>
     <use xlink:href="#DejaVuSans-3" transform="translate(440.828125 0)"/>
     <use xlink:href="#DejaVuSans-55" transform="translate(472.609375 0)"/>
     <use xlink:href="#DejaVuSans-48" transform="translate(511.515625 0)"/>
     <use xlink:href="#DejaVuSans-4f" transform="translate(573.046875 0)"/>
     <use xlink:href="#DejaVuSans-48" transform="translate(600.828125 0)"/>
     <use xlink:href="#DejaVuSans-44" transform="translate(662.359375 0)"/>
     <use xlink:href="#DejaVuSans-56" transform="translate(723.640625 0)"/>
     <use xlink:href="#DejaVuSans-48" transform="translate(775.734375 0)"/>
     <use xlink:href="#DejaVuSans-56" transform="translate(837.265625 0)"/>
    </g>
   </g>
   <g id="text_12">
    <!-- release date vs version applicability -->
    <g transform="translate(733.385125 459.918152) scale(0.11 -0.11)">
     <use xlink:href="#DejaVuSans-55"/>
     <use xlink:href="#DejaVuSans-48" transform="translate(38.90625 0)"/>
     <use xlink:href="#DejaVuSans-4f" transform="translate(100.4375 0)"/>
     <use xlink:href="#DejaVuSans-48" transform="translate(128.21875 0)"/>
     <use xlink:href="#DejaVuSans-44" transform="translate(189.75 0)"/>
     <use xlink:href="#DejaVuSans-56" transform="translate(251.03125 0)"/>
     <use xlink:href="#DejaVuSans-48" transform="translate(303.125 0)"/>
     <use xlink:href="#DejaVuSans-3" transform="translate(364.65625 0)"/>
     <use xlink:href="#DejaVuSans-47" transform="translate(396.4375 0)"/>
     <use xlink:href="#DejaVuSans-44" transform="translate(459.921875 0)"/>
     <use xlink:href="#DejaVuSans-57" transform="translate(521.203125 0)"/>
     <use xlink:href="#DejaVuSans-48" transform="translate(560.40625 0)"/>
     <use xlink:href="#DejaVuSans-3" transform="translate(621.9375 0)"/>
     <use xlink:href="#DejaVuSans-59" transform="translate(653.71875 0)"/>
     <use xlink:href="#DejaVuSans-56" transform="translate(712.90625 0)"/>
     <use xlink:href="#DejaVuSans-3" transform="translate(765 0)"/>
     <use xlink:href="#DejaVuSans-59" transform="translate(796.78125 0)"/>
     <use xlink:href="#DejaVuSans-48" transform="translate(855.96875 0)"/>
     <use xlink:href="#DejaVuSans-55" transform="translate(917.5 0)"/>
     <use xlink:href="#DejaVuSans-56" transform="translate(958.609375 0)"/>
     <use xlink:href="#DejaVuSans-4c" transform="translate(1010.703125 0)"/>
     <use xlink:href="#DejaVuSans-52" transform="translate(1038.484375 0)"/>
     <use xlink:href="#DejaVuSans-51" transform="translate(1099.671875 0)"/>
     <use xlink:href="#DejaVuSans-3" transform="translate(1163.046875 0)"/>
     <use xlink:href="#DejaVuSans-44" transform="translate(1194.828125 0)"/>
     <use xlink:href="#DejaVuSans-53" transform="translate(1256.109375 0)"/>
     <use xlink:href="#DejaVuSans-53" transform="translate(1319.59375 0)"/>
     <use xlink:href="#DejaVuSans-4f" transform="translate(1383.078125 0)"/>
     <use xlink:href="#DejaVuSans-4c" transform="translate(1410.859375 0)"/>
     <use xlink:href="#DejaVuSans-46" transform="translate(1438.640625 0)"/>
     <use xlink:href="#DejaVuSans-44" transform="translate(1493.625 0)"/>
     <use xlink:href="#DejaVuSans-45" transform="translate(1554.90625 0)"/>
     <use xlink:href="#DejaVuSans-4c" transform="translate(1618.390625 0)"/>
     <use xlink:href="#DejaVuSans-4f" transform="translate(1646.171875 0)"/>
     <use xlink:href="#DejaVuSans-4c" transform="translate(1673.953125 0)"/>
     <use xlink:href="#DejaVuSans-57" transform="translate(1701.734375 0)"/>
     <use xlink:href="#DejaVuSans-5c" transform="translate(1740.9375 0)"/>
    </g>
   </g>
   <g id="text_13">
    <!-- Audit / investigation -->
    <g transform="translate(218.090062 517.003156) scale(0.12 -0.12)">
     <defs>
      <path id="DejaVuSans-24" d="M 2188 4044
L 1331 1722
L 3047 1722
L 2188 4044
z
M 1831 4666
L 2547 4666
L 4325 0
L 3669 0
L 3244 1197
L 1141 1197
L 716 0
L 50 0
L 1831 4666
z
" transform="scale(0.015625)"/>
     </defs>
     <use xlink:href="#DejaVuSans-24"/>
     <use xlink:href="#DejaVuSans-58" transform="translate(68.40625 0)"/>
     <use xlink:href="#DejaVuSans-47" transform="translate(131.78125 0)"/>
     <use xlink:href="#DejaVuSans-4c" transform="translate(195.265625 0)"/>
     <use xlink:href="#DejaVuSans-57" transform="translate(223.046875 0)"/>
     <use xlink:href="#DejaVuSans-3" transform="translate(262.25 0)"/>
     <use xlink:href="#DejaVuSans-12" transform="translate(294.03125 0)"/>
     <use xlink:href="#DejaVuSans-3" transform="translate(327.71875 0)"/>
     <use xlink:href="#DejaVuSans-4c" transform="translate(359.5 0)"/>
     <use xlink:href="#DejaVuSans-51" transform="translate(387.28125 0)"/>
     <use xlink:href="#DejaVuSans-59" transform="translate(450.65625 0)"/>
     <use xlink:href="#DejaVuSans-48" transform="translate(509.84375 0)"/>
     <use xlink:href="#DejaVuSans-56" transform="translate(571.375 0)"/>
     <use xlink:href="#DejaVuSans-57" transform="translate(623.46875 0)"/>
     <use xlink:href="#DejaVuSans-4c" transform="translate(662.671875 0)"/>
     <use xlink:href="#DejaVuSans-4a" transform="translate(690.453125 0)"/>
     <use xlink:href="#DejaVuSans-44" transform="translate(753.9375 0)"/>
     <use xlink:href="#DejaVuSans-57" transform="translate(815.21875 0)"/>
     <use xlink:href="#DejaVuSans-4c" transform="translate(854.421875 0)"/>
     <use xlink:href="#DejaVuSans-52" transform="translate(882.203125 0)"/>
     <use xlink:href="#DejaVuSans-51" transform="translate(943.390625 0)"/>
    </g>
   </g>
   <g id="text_14">
    <!-- evidence time vs investigation time -->
    <g transform="translate(733.891297 516.743352) scale(0.11 -0.11)">
     <use xlink:href="#DejaVuSans-48"/>
     <use xlink:href="#DejaVuSans-59" transform="translate(61.53125 0)"/>
     <use xlink:href="#DejaVuSans-4c" transform="translate(120.71875 0)"/>
     <use xlink:href="#DejaVuSans-47" transform="translate(148.5 0)"/>
     <use xlink:href="#DejaVuSans-48" transform="translate(211.984375 0)"/>
     <use xlink:href="#DejaVuSans-51" transform="translate(273.515625 0)"/>
     <use xlink:href="#DejaVuSans-46" transform="translate(336.890625 0)"/>
     <use xlink:href="#DejaVuSans-48" transform="translate(391.875 0)"/>
     <use xlink:href="#DejaVuSans-3" transform="translate(453.40625 0)"/>
     <use xlink:href="#DejaVuSans-57" transform="translate(485.1875 0)"/>
     <use xlink:href="#DejaVuSans-4c" transform="translate(524.390625 0)"/>
     <use xlink:href="#DejaVuSans-50" transform="translate(552.171875 0)"/>
     <use xlink:href="#DejaVuSans-48" transform="translate(649.578125 0)"/>
     <use xlink:href="#DejaVuSans-3" transform="translate(711.109375 0)"/>
     <use xlink:href="#DejaVuSans-59" transform="translate(742.890625 0)"/>
     <use xlink:href="#DejaVuSans-56" transform="translate(802.078125 0)"/>
     <use xlink:href="#DejaVuSans-3" transform="translate(854.171875 0)"/>
     <use xlink:href="#DejaVuSans-4c" transform="translate(885.953125 0)"/>
     <use xlink:href="#DejaVuSans-51" transform="translate(913.734375 0)"/>
     <use xlink:href="#DejaVuSans-59" transform="translate(977.109375 0)"/>
     <use xlink:href="#DejaVuSans-48" transform="translate(1036.296875 0)"/>
     <use xlink:href="#DejaVuSans-56" transform="translate(1097.828125 0)"/>
     <use xlink:href="#DejaVuSans-57" transform="translate(1149.921875 0)"/>
     <use xlink:href="#DejaVuSans-4c" transform="translate(1189.125 0)"/>
     <use xlink:href="#DejaVuSans-4a" transform="translate(1216.90625 0)"/>
     <use xlink:href="#DejaVuSans-44" transform="translate(1280.390625 0)"/>
     <use xlink:href="#DejaVuSans-57" transform="translate(1341.671875 0)"/>
     <use xlink:href="#DejaVuSans-4c" transform="translate(1380.875 0)"/>
     <use xlink:href="#DejaVuSans-52" transform="translate(1408.65625 0)"/>
     <use xlink:href="#DejaVuSans-51" transform="translate(1469.84375 0)"/>
     <use xlink:href="#DejaVuSans-3" transform="translate(1533.21875 0)"/>
     <use xlink:href="#DejaVuSans-57" transform="translate(1565 0)"/>
     <use xlink:href="#DejaVuSans-4c" transform="translate(1604.203125 0)"/>
     <use xlink:href="#DejaVuSans-50" transform="translate(1631.984375 0)"/>
     <use xlink:href="#DejaVuSans-48" transform="translate(1729.390625 0)"/>
    </g>
   </g>
   <g id="text_15">
    <!-- Application area -->
    <g transform="translate(213.762406 131.0631) scale(0.14 -0.14)">
     <defs>
      <path id="DejaVuSans-Bold-24" d="M 3419 850
L 1538 850
L 1241 0
L 31 0
L 1759 4666
L 3194 4666
L 4922 0
L 3713 0
L 3419 850
z
M 1838 1716
L 3116 1716
L 2478 3572
L 1838 1716
z
" transform="scale(0.015625)"/>
      <path id="DejaVuSans-Bold-53" d="M 1656 506
L 1656 -1331
L 538 -1331
L 538 3500
L 1656 3500
L 1656 2988
Q 1888 3294 2169 3439
Q 2450 3584 2816 3584
Q 3463 3584 3878 3070
Q 4294 2556 4294 1747
Q 4294 938 3878 423
Q 3463 -91 2816 -91
Q 2450 -91 2169 54
Q 1888 200 1656 506
z
M 2400 2772
Q 2041 2772 1848 2508
Q 1656 2244 1656 1747
Q 1656 1250 1848 986
Q 2041 722 2400 722
Q 2759 722 2948 984
Q 3138 1247 3138 1747
Q 3138 2247 2948 2509
Q 2759 2772 2400 2772
z
" transform="scale(0.015625)"/>
      <path id="DejaVuSans-Bold-4f" d="M 538 4863
L 1656 4863
L 1656 0
L 538 0
L 538 4863
z
" transform="scale(0.015625)"/>
      <path id="DejaVuSans-Bold-4c" d="M 538 3500
L 1656 3500
L 1656 0
L 538 0
L 538 3500
z
M 538 4863
L 1656 4863
L 1656 3950
L 538 3950
L 538 4863
z
" transform="scale(0.015625)"/>
      <path id="DejaVuSans-Bold-46" d="M 3366 3391
L 3366 2478
Q 3138 2634 2908 2709
Q 2678 2784 2431 2784
Q 1963 2784 1702 2511
Q 1441 2238 1441 1747
Q 1441 1256 1702 982
Q 1963 709 2431 709
Q 2694 709 2930 787
Q 3166 866 3366 1019
L 3366 103
Q 3103 6 2833 -42
Q 2563 -91 2291 -91
Q 1344 -91 809 395
Q 275 881 275 1747
Q 275 2613 809 3098
Q 1344 3584 2291 3584
Q 2566 3584 2833 3536
Q 3100 3488 3366 3391
z
" transform="scale(0.015625)"/>
      <path id="DejaVuSans-Bold-44" d="M 2106 1575
Q 1756 1575 1579 1456
Q 1403 1338 1403 1106
Q 1403 894 1545 773
Q 1688 653 1941 653
Q 2256 653 2472 879
Q 2688 1106 2688 1447
L 2688 1575
L 2106 1575
z
M 3816 1997
L 3816 0
L 2688 0
L 2688 519
Q 2463 200 2181 54
Q 1900 -91 1497 -91
Q 953 -91 614 226
Q 275 544 275 1050
Q 275 1666 698 1953
Q 1122 2241 2028 2241
L 2688 2241
L 2688 2328
Q 2688 2594 2478 2717
Q 2269 2841 1825 2841
Q 1466 2841 1156 2769
Q 847 2697 581 2553
L 581 3406
Q 941 3494 1303 3539
Q 1666 3584 2028 3584
Q 2975 3584 3395 3211
Q 3816 2838 3816 1997
z
" transform="scale(0.015625)"/>
      <path id="DejaVuSans-Bold-57" d="M 1759 4494
L 1759 3500
L 2913 3500
L 2913 2700
L 1759 2700
L 1759 1216
Q 1759 972 1856 886
Q 1953 800 2241 800
L 2816 800
L 2816 0
L 1856 0
Q 1194 0 917 276
Q 641 553 641 1216
L 641 2700
L 84 2700
L 84 3500
L 641 3500
L 641 4494
L 1759 4494
z
" transform="scale(0.015625)"/>
      <path id="DejaVuSans-Bold-52" d="M 2203 2784
Q 1831 2784 1636 2517
Q 1441 2250 1441 1747
Q 1441 1244 1636 976
Q 1831 709 2203 709
Q 2569 709 2762 976
Q 2956 1244 2956 1747
Q 2956 2250 2762 2517
Q 2569 2784 2203 2784
z
M 2203 3584
Q 3106 3584 3614 3096
Q 4122 2609 4122 1747
Q 4122 884 3614 396
Q 3106 -91 2203 -91
Q 1297 -91 786 396
Q 275 884 275 1747
Q 275 2609 786 3096
Q 1297 3584 2203 3584
z
" transform="scale(0.015625)"/>
      <path id="DejaVuSans-Bold-51" d="M 4056 2131
L 4056 0
L 2931 0
L 2931 347
L 2931 1631
Q 2931 2084 2911 2256
Q 2891 2428 2841 2509
Q 2775 2619 2662 2680
Q 2550 2741 2406 2741
Q 2056 2741 1856 2470
Q 1656 2200 1656 1722
L 1656 0
L 538 0
L 538 3500
L 1656 3500
L 1656 2988
Q 1909 3294 2193 3439
Q 2478 3584 2822 3584
Q 3428 3584 3742 3212
Q 4056 2841 4056 2131
z
" transform="scale(0.015625)"/>
      <path id="DejaVuSans-Bold-3" transform="scale(0.015625)"/>
      <path id="DejaVuSans-Bold-55" d="M 3138 2547
Q 2991 2616 2845 2648
Q 2700 2681 2553 2681
Q 2122 2681 1889 2404
Q 1656 2128 1656 1613
L 1656 0
L 538 0
L 538 3500
L 1656 3500
L 1656 2925
Q 1872 3269 2151 3426
Q 2431 3584 2822 3584
Q 2878 3584 2943 3579
Q 3009 3575 3134 3559
L 3138 2547
z
" transform="scale(0.015625)"/>
      <path id="DejaVuSans-Bold-48" d="M 4031 1759
L 4031 1441
L 1416 1441
Q 1456 1047 1700 850
Q 1944 653 2381 653
Q 2734 653 3104 758
Q 3475 863 3866 1075
L 3866 213
Q 3469 63 3072 -14
Q 2675 -91 2278 -91
Q 1328 -91 801 392
Q 275 875 275 1747
Q 275 2603 792 3093
Q 1309 3584 2216 3584
Q 3041 3584 3536 3087
Q 4031 2591 4031 1759
z
M 2881 2131
Q 2881 2450 2695 2645
Q 2509 2841 2209 2841
Q 1884 2841 1681 2658
Q 1478 2475 1428 2131
L 2881 2131
z
" transform="scale(0.015625)"/>
     </defs>
     <use xlink:href="#DejaVuSans-Bold-24"/>
     <use xlink:href="#DejaVuSans-Bold-53" transform="translate(77.390625 0)"/>
     <use xlink:href="#DejaVuSans-Bold-53" transform="translate(148.96875 0)"/>
     <use xlink:href="#DejaVuSans-Bold-4f" transform="translate(220.546875 0)"/>
     <use xlink:href="#DejaVuSans-Bold-4c" transform="translate(254.828125 0)"/>
     <use xlink:href="#DejaVuSans-Bold-46" transform="translate(289.109375 0)"/>
     <use xlink:href="#DejaVuSans-Bold-44" transform="translate(348.390625 0)"/>
     <use xlink:href="#DejaVuSans-Bold-57" transform="translate(415.875 0)"/>
     <use xlink:href="#DejaVuSans-Bold-4c" transform="translate(463.671875 0)"/>
     <use xlink:href="#DejaVuSans-Bold-52" transform="translate(497.953125 0)"/>
     <use xlink:href="#DejaVuSans-Bold-51" transform="translate(566.65625 0)"/>
     <use xlink:href="#DejaVuSans-Bold-3" transform="translate(637.84375 0)"/>
     <use xlink:href="#DejaVuSans-Bold-44" transform="translate(672.65625 0)"/>
     <use xlink:href="#DejaVuSans-Bold-55" transform="translate(740.140625 0)"/>
     <use xlink:href="#DejaVuSans-Bold-48" transform="translate(789.453125 0)"/>
     <use xlink:href="#DejaVuSans-Bold-44" transform="translate(857.28125 0)"/>
    </g>
   </g>
   <g id="text_16">
    <!-- Temporal-role problem -->
    <g transform="translate(742.6345 131.0631) scale(0.14 -0.14)">
     <defs>
      <path id="DejaVuSans-Bold-37" d="M 31 4666
L 4331 4666
L 4331 3756
L 2784 3756
L 2784 0
L 1581 0
L 1581 3756
L 31 3756
L 31 4666
z
" transform="scale(0.015625)"/>
      <path id="DejaVuSans-Bold-50" d="M 3781 2919
Q 3994 3244 4286 3414
Q 4578 3584 4928 3584
Q 5531 3584 5847 3212
Q 6163 2841 6163 2131
L 6163 0
L 5038 0
L 5038 1825
Q 5041 1866 5042 1909
Q 5044 1953 5044 2034
Q 5044 2406 4934 2573
Q 4825 2741 4581 2741
Q 4263 2741 4089 2478
Q 3916 2216 3909 1719
L 3909 0
L 2784 0
L 2784 1825
Q 2784 2406 2684 2573
Q 2584 2741 2328 2741
Q 2006 2741 1831 2477
Q 1656 2213 1656 1722
L 1656 0
L 531 0
L 531 3500
L 1656 3500
L 1656 2988
Q 1863 3284 2130 3434
Q 2397 3584 2719 3584
Q 3081 3584 3359 3409
Q 3638 3234 3781 2919
z
" transform="scale(0.015625)"/>
      <path id="DejaVuSans-Bold-10" d="M 347 2297
L 2309 2297
L 2309 1388
L 347 1388
L 347 2297
z
" transform="scale(0.015625)"/>
      <path id="DejaVuSans-Bold-45" d="M 2400 722
Q 2759 722 2948 984
Q 3138 1247 3138 1747
Q 3138 2247 2948 2509
Q 2759 2772 2400 2772
Q 2041 2772 1848 2508
Q 1656 2244 1656 1747
Q 1656 1250 1848 986
Q 2041 722 2400 722
z
M 1656 2988
Q 1888 3294 2169 3439
Q 2450 3584 2816 3584
Q 3463 3584 3878 3070
Q 4294 2556 4294 1747
Q 4294 938 3878 423
Q 3463 -91 2816 -91
Q 2450 -91 2169 54
Q 1888 200 1656 506
L 1656 0
L 538 0
L 538 4863
L 1656 4863
L 1656 2988
z
" transform="scale(0.015625)"/>
     </defs>
     <use xlink:href="#DejaVuSans-Bold-37"/>
     <use xlink:href="#DejaVuSans-Bold-48" transform="translate(54.9375 0)"/>
     <use xlink:href="#DejaVuSans-Bold-50" transform="translate(122.765625 0)"/>
     <use xlink:href="#DejaVuSans-Bold-53" transform="translate(226.96875 0)"/>
     <use xlink:href="#DejaVuSans-Bold-52" transform="translate(298.546875 0)"/>
     <use xlink:href="#DejaVuSans-Bold-55" transform="translate(367.25 0)"/>
     <use xlink:href="#DejaVuSans-Bold-44" transform="translate(416.5625 0)"/>
     <use xlink:href="#DejaVuSans-Bold-4f" transform="translate(484.046875 0)"/>
     <use xlink:href="#DejaVuSans-Bold-10" transform="translate(518.328125 0)"/>
     <use xlink:href="#DejaVuSans-Bold-55" transform="translate(559.828125 0)"/>
     <use xlink:href="#DejaVuSans-Bold-52" transform="translate(609.140625 0)"/>
     <use xlink:href="#DejaVuSans-Bold-4f" transform="translate(677.84375 0)"/>
     <use xlink:href="#DejaVuSans-Bold-48" transform="translate(712.125 0)"/>
     <use xlink:href="#DejaVuSans-Bold-3" transform="translate(779.953125 0)"/>
     <use xlink:href="#DejaVuSans-Bold-53" transform="translate(814.765625 0)"/>
     <use xlink:href="#DejaVuSans-Bold-55" transform="translate(886.34375 0)"/>
     <use xlink:href="#DejaVuSans-Bold-52" transform="translate(935.65625 0)"/>
     <use xlink:href="#DejaVuSans-Bold-45" transform="translate(1004.359375 0)"/>
     <use xlink:href="#DejaVuSans-Bold-4f" transform="translate(1075.9375 0)"/>
     <use xlink:href="#DejaVuSans-Bold-48" transform="translate(1110.21875 0)"/>
     <use xlink:href="#DejaVuSans-Bold-50" transform="translate(1178.046875 0)"/>
    </g>
   </g>
   <g id="text_17">
    <!-- ChronoRAG is most relevant where evidence is time-sensitive and temporal roles are easy to confuse. -->
    <g style="fill: #333333" transform="translate(240.621719 603.6095) scale(0.13 -0.13)">
     <defs>
      <path id="DejaVuSans-26" d="M 4122 4306
L 4122 3641
Q 3803 3938 3442 4084
Q 3081 4231 2675 4231
Q 1875 4231 1450 3742
Q 1025 3253 1025 2328
Q 1025 1406 1450 917
Q 1875 428 2675 428
Q 3081 428 3442 575
Q 3803 722 4122 1019
L 4122 359
Q 3791 134 3420 21
Q 3050 -91 2638 -91
Q 1578 -91 968 557
Q 359 1206 359 2328
Q 359 3453 968 4101
Q 1578 4750 2638 4750
Q 3056 4750 3426 4639
Q 3797 4528 4122 4306
z
" transform="scale(0.015625)"/>
      <path id="DejaVuSans-35" d="M 2841 2188
Q 3044 2119 3236 1894
Q 3428 1669 3622 1275
L 4263 0
L 3584 0
L 2988 1197
Q 2756 1666 2539 1819
Q 2322 1972 1947 1972
L 1259 1972
L 1259 0
L 628 0
L 628 4666
L 2053 4666
Q 2853 4666 3247 4331
Q 3641 3997 3641 3322
Q 3641 2881 3436 2590
Q 3231 2300 2841 2188
z
M 1259 4147
L 1259 2491
L 2053 2491
Q 2509 2491 2742 2702
Q 2975 2913 2975 3322
Q 2975 3731 2742 3939
Q 2509 4147 2053 4147
L 1259 4147
z
" transform="scale(0.015625)"/>
      <path id="DejaVuSans-2a" d="M 3809 666
L 3809 1919
L 2778 1919
L 2778 2438
L 4434 2438
L 4434 434
Q 4069 175 3628 42
Q 3188 -91 2688 -91
Q 1594 -91 976 548
Q 359 1188 359 2328
Q 359 3472 976 4111
Q 1594 4750 2688 4750
Q 3144 4750 3555 4637
Q 3966 4525 4313 4306
L 4313 3634
Q 3963 3931 3569 4081
Q 3175 4231 2741 4231
Q 1884 4231 1454 3753
Q 1025 3275 1025 2328
Q 1025 1384 1454 906
Q 1884 428 2741 428
Q 3075 428 3337 486
Q 3600 544 3809 666
z
" transform="scale(0.015625)"/>
      <path id="DejaVuSans-10" d="M 313 2009
L 1997 2009
L 1997 1497
L 313 1497
L 313 2009
z
" transform="scale(0.015625)"/>
      <path id="DejaVuSans-11" d="M 684 794
L 1344 794
L 1344 0
L 684 0
L 684 794
z
" transform="scale(0.015625)"/>
     </defs>
     <use xlink:href="#DejaVuSans-26"/>
     <use xlink:href="#DejaVuSans-4b" transform="translate(69.828125 0)"/>
     <use xlink:href="#DejaVuSans-55" transform="translate(133.203125 0)"/>
     <use xlink:href="#DejaVuSans-52" transform="translate(172.109375 0)"/>
     <use xlink:href="#DejaVuSans-51" transform="translate(233.296875 0)"/>
     <use xlink:href="#DejaVuSans-52" transform="translate(296.671875 0)"/>
     <use xlink:href="#DejaVuSans-35" transform="translate(357.859375 0)"/>
     <use xlink:href="#DejaVuSans-24" transform="translate(423.296875 0)"/>
     <use xlink:href="#DejaVuSans-2a" transform="translate(489.953125 0)"/>
     <use xlink:href="#DejaVuSans-3" transform="translate(567.4375 0)"/>
     <use xlink:href="#DejaVuSans-4c" transform="translate(599.21875 0)"/>
     <use xlink:href="#DejaVuSans-56" transform="translate(627 0)"/>
     <use xlink:href="#DejaVuSans-3" transform="translate(679.09375 0)"/>
     <use xlink:href="#DejaVuSans-50" transform="translate(710.875 0)"/>
     <use xlink:href="#DejaVuSans-52" transform="translate(808.28125 0)"/>
     <use xlink:href="#DejaVuSans-56" transform="translate(869.46875 0)"/>
     <use xlink:href="#DejaVuSans-57" transform="translate(921.5625 0)"/>
     <use xlink:href="#DejaVuSans-3" transform="translate(960.765625 0)"/>
     <use xlink:href="#DejaVuSans-55" transform="translate(992.546875 0)"/>
     <use xlink:href="#DejaVuSans-48" transform="translate(1031.453125 0)"/>
     <use xlink:href="#DejaVuSans-4f" transform="translate(1092.984375 0)"/>
     <use xlink:href="#DejaVuSans-48" transform="translate(1120.765625 0)"/>
     <use xlink:href="#DejaVuSans-59" transform="translate(1182.296875 0)"/>
     <use xlink:href="#DejaVuSans-44" transform="translate(1241.484375 0)"/>
     <use xlink:href="#DejaVuSans-51" transform="translate(1302.765625 0)"/>
     <use xlink:href="#DejaVuSans-57" transform="translate(1366.140625 0)"/>
     <use xlink:href="#DejaVuSans-3" transform="translate(1405.34375 0)"/>
     <use xlink:href="#DejaVuSans-5a" transform="translate(1437.125 0)"/>
     <use xlink:href="#DejaVuSans-4b" transform="translate(1518.90625 0)"/>
     <use xlink:href="#DejaVuSans-48" transform="translate(1582.28125 0)"/>
     <use xlink:href="#DejaVuSans-55" transform="translate(1643.8125 0)"/>
     <use xlink:href="#DejaVuSans-48" transform="translate(1682.71875 0)"/>
     <use xlink:href="#DejaVuSans-3" transform="translate(1744.25 0)"/>
     <use xlink:href="#DejaVuSans-48" transform="translate(1776.03125 0)"/>
     <use xlink:href="#DejaVuSans-59" transform="translate(1837.5625 0)"/>
     <use xlink:href="#DejaVuSans-4c" transform="translate(1896.75 0)"/>
     <use xlink:href="#DejaVuSans-47" transform="translate(1924.53125 0)"/>
     <use xlink:href="#DejaVuSans-48" transform="translate(1988.015625 0)"/>
     <use xlink:href="#DejaVuSans-51" transform="translate(2049.546875 0)"/>
     <use xlink:href="#DejaVuSans-46" transform="translate(2112.921875 0)"/>
     <use xlink:href="#DejaVuSans-48" transform="translate(2167.90625 0)"/>
     <use xlink:href="#DejaVuSans-3" transform="translate(2229.4375 0)"/>
     <use xlink:href="#DejaVuSans-4c" transform="translate(2261.21875 0)"/>
     <use xlink:href="#DejaVuSans-56" transform="translate(2289 0)"/>
     <use xlink:href="#DejaVuSans-3" transform="translate(2341.09375 0)"/>
     <use xlink:href="#DejaVuSans-57" transform="translate(2372.875 0)"/>
     <use xlink:href="#DejaVuSans-4c" transform="translate(2412.078125 0)"/>
     <use xlink:href="#DejaVuSans-50" transform="translate(2439.859375 0)"/>
     <use xlink:href="#DejaVuSans-48" transform="translate(2537.265625 0)"/>
     <use xlink:href="#DejaVuSans-10" transform="translate(2598.796875 0)"/>
     <use xlink:href="#DejaVuSans-56" transform="translate(2634.875 0)"/>
     <use xlink:href="#DejaVuSans-48" transform="translate(2686.96875 0)"/>
     <use xlink:href="#DejaVuSans-51" transform="translate(2748.5 0)"/>
     <use xlink:href="#DejaVuSans-56" transform="translate(2811.875 0)"/>
     <use xlink:href="#DejaVuSans-4c" transform="translate(2863.96875 0)"/>
     <use xlink:href="#DejaVuSans-57" transform="translate(2891.75 0)"/>
     <use xlink:href="#DejaVuSans-4c" transform="translate(2930.953125 0)"/>
     <use xlink:href="#DejaVuSans-59" transform="translate(2958.734375 0)"/>
     <use xlink:href="#DejaVuSans-48" transform="translate(3017.921875 0)"/>
     <use xlink:href="#DejaVuSans-3" transform="translate(3079.453125 0)"/>
     <use xlink:href="#DejaVuSans-44" transform="translate(3111.234375 0)"/>
     <use xlink:href="#DejaVuSans-51" transform="translate(3172.515625 0)"/>
     <use xlink:href="#DejaVuSans-47" transform="translate(3235.890625 0)"/>
     <use xlink:href="#DejaVuSans-3" transform="translate(3299.375 0)"/>
     <use xlink:href="#DejaVuSans-57" transform="translate(3331.15625 0)"/>
     <use xlink:href="#DejaVuSans-48" transform="translate(3370.359375 0)"/>
     <use xlink:href="#DejaVuSans-50" transform="translate(3431.890625 0)"/>
     <use xlink:href="#DejaVuSans-53" transform="translate(3529.296875 0)"/>
     <use xlink:href="#DejaVuSans-52" transform="translate(3592.78125 0)"/>
     <use xlink:href="#DejaVuSans-55" transform="translate(3653.96875 0)"/>
     <use xlink:href="#DejaVuSans-44" transform="translate(3695.078125 0)"/>
     <use xlink:href="#DejaVuSans-4f" transform="translate(3756.359375 0)"/>
     <use xlink:href="#DejaVuSans-3" transform="translate(3784.140625 0)"/>
     <use xlink:href="#DejaVuSans-55" transform="translate(3815.921875 0)"/>
     <use xlink:href="#DejaVuSans-52" transform="translate(3854.828125 0)"/>
     <use xlink:href="#DejaVuSans-4f" transform="translate(3916.015625 0)"/>
     <use xlink:href="#DejaVuSans-48" transform="translate(3943.796875 0)"/>
     <use xlink:href="#DejaVuSans-56" transform="translate(4005.328125 0)"/>
     <use xlink:href="#DejaVuSans-3" transform="translate(4057.421875 0)"/>
     <use xlink:href="#DejaVuSans-44" transform="translate(4089.203125 0)"/>
     <use xlink:href="#DejaVuSans-55" transform="translate(4150.484375 0)"/>
     <use xlink:href="#DejaVuSans-48" transform="translate(4189.390625 0)"/>
     <use xlink:href="#DejaVuSans-3" transform="translate(4250.921875 0)"/>
     <use xlink:href="#DejaVuSans-48" transform="translate(4282.703125 0)"/>
     <use xlink:href="#DejaVuSans-44" transform="translate(4344.234375 0)"/>
     <use xlink:href="#DejaVuSans-56" transform="translate(4405.515625 0)"/>
     <use xlink:href="#DejaVuSans-5c" transform="translate(4457.609375 0)"/>
     <use xlink:href="#DejaVuSans-3" transform="translate(4516.796875 0)"/>
     <use xlink:href="#DejaVuSans-57" transform="translate(4548.578125 0)"/>
     <use xlink:href="#DejaVuSans-52" transform="translate(4587.78125 0)"/>
     <use xlink:href="#DejaVuSans-3" transform="translate(4648.96875 0)"/>
     <use xlink:href="#DejaVuSans-46" transform="translate(4680.75 0)"/>
     <use xlink:href="#DejaVuSans-52" transform="translate(4735.734375 0)"/>
     <use xlink:href="#DejaVuSans-51" transform="translate(4796.921875 0)"/>
     <use xlink:href="#DejaVuSans-49" transform="translate(4860.296875 0)"/>
     <use xlink:href="#DejaVuSans-58" transform="translate(4895.5 0)"/>
     <use xlink:href="#DejaVuSans-56" transform="translate(4958.875 0)"/>
     <use xlink:href="#DejaVuSans-48" transform="translate(5010.96875 0)"/>
     <use xlink:href="#DejaVuSans-11" transform="translate(5072.5 0)"/>
    </g>
   </g>
   <g id="text_18">
    <!-- Figure 14. Applications map -->
    <g transform="translate(460.98375 19.3575) scale(0.16 -0.16)">
     <defs>
      <path id="DejaVuSans-14" d="M 794 531
L 1825 531
L 1825 4091
L 703 3866
L 703 4441
L 1819 4666
L 2450 4666
L 2450 531
L 3481 531
L 3481 0
L 794 0
L 794 531
z
" transform="scale(0.015625)"/>
      <path id="DejaVuSans-17" d="M 2419 4116
L 825 1625
L 2419 1625
L 2419 4116
z
M 2253 4666
L 3047 4666
L 3047 1625
L 3713 1625
L 3713 1100
L 3047 1100
L 3047 0
L 2419 0
L 2419 1100
L 313 1100
L 313 1709
L 2253 4666
z
" transform="scale(0.015625)"/>
     </defs>
     <use xlink:href="#DejaVuSans-29"/>
     <use xlink:href="#DejaVuSans-4c" transform="translate(50.234375 0)"/>
     <use xlink:href="#DejaVuSans-4a" transform="translate(78.015625 0)"/>
     <use xlink:href="#DejaVuSans-58" transform="translate(141.5 0)"/>
     <use xlink:href="#DejaVuSans-55" transform="translate(204.875 0)"/>
     <use xlink:href="#DejaVuSans-48" transform="translate(243.78125 0)"/>
     <use xlink:href="#DejaVuSans-3" transform="translate(305.3125 0)"/>
     <use xlink:href="#DejaVuSans-14" transform="translate(337.09375 0)"/>
     <use xlink:href="#DejaVuSans-17" transform="translate(400.71875 0)"/>
     <use xlink:href="#DejaVuSans-11" transform="translate(464.34375 0)"/>
     <use xlink:href="#DejaVuSans-3" transform="translate(496.125 0)"/>
     <use xlink:href="#DejaVuSans-24" transform="translate(527.90625 0)"/>
     <use xlink:href="#DejaVuSans-53" transform="translate(596.3125 0)"/>
     <use xlink:href="#DejaVuSans-53" transform="translate(659.796875 0)"/>
     <use xlink:href="#DejaVuSans-4f" transform="translate(723.28125 0)"/>
     <use xlink:href="#DejaVuSans-4c" transform="translate(751.0625 0)"/>
     <use xlink:href="#DejaVuSans-46" transform="translate(778.84375 0)"/>
     <use xlink:href="#DejaVuSans-44" transform="translate(833.828125 0)"/>
     <use xlink:href="#DejaVuSans-57" transform="translate(895.109375 0)"/>
     <use xlink:href="#DejaVuSans-4c" transform="translate(934.3125 0)"/>
     <use xlink:href="#DejaVuSans-52" transform="translate(962.09375 0)"/>
     <use xlink:href="#DejaVuSans-51" transform="translate(1023.28125 0)"/>
     <use xlink:href="#DejaVuSans-56" transform="translate(1086.65625 0)"/>
     <use xlink:href="#DejaVuSans-3" transform="translate(1138.75 0)"/>
     <use xlink:href="#DejaVuSans-50" transform="translate(1170.53125 0)"/>
     <use xlink:href="#DejaVuSans-44" transform="translate(1267.9375 0)"/>
     <use xlink:href="#DejaVuSans-53" transform="translate(1329.21875 0)"/>
    </g>
   </g>
  </g>
 </g>
 <defs>
  <clipPath id="p31b380183e">
   <rect x="7.2" y="35.3575" width="1130.4" height="598.16"/>
  </clipPath>
 </defs>
</svg>
