<?xml version="1.0" encoding="utf-8" standalone="no"?>
<!DOCTYPE svg PUBLIC "-//W3C//DTD SVG 1.1//EN"
  "http://www.w3.org/Graphics/SVG/1.1/DTD/svg11.dtd">
<svg xmlns:xlink="http://www.w3.org/1999/xlink" width="1011.6pt" height="533.88pt" viewBox="0 0 1011.6 533.88" xmlns="http://www.w3.org/2000/svg" version="1.1">
 <metadata>
  <rdf:RDF xmlns:dc="http://purl.org/dc/elements/1.1/" xmlns:cc="http://creativecommons.org/ns#" xmlns:rdf="http://www.w3.org/1999/02/22-rdf-syntax-ns#">
   <cc:Work>
    <dc:type rdf:resource="http://purl.org/dc/dcmitype/StillImage"/>
    <dc:date>2026-06-18T00:08:22.836990</dc:date>
    <dc:format>image/svg+xml</dc:format>
    <dc:creator>
     <cc:Agent>
      <dc:title>Matplotlib v3.11.0, https://matplotlib.org/</dc:title>
     </cc:Agent>
    </dc:creator>
   </cc:Work>
  </rdf:RDF>
 </metadata>
 <defs>
  <style type="text/css">*{stroke-linejoin: round; stroke-linecap: butt}</style>
 </defs>
 <g id="figure_1">
  <g id="patch_1">
   <path d="M 0 533.88 
L 1011.6 533.88 
L 1011.6 0 
L 0 0 
z
" style="fill: #ffffff"/>
  </g>
  <g id="axes_1">
   <g id="patch_2">
    <path d="M 139.194 132.10992 
Q 139.194 146.33028 139.194 159.041294 
" clip-path="url(#p14421f34e0)" style="fill: none; stroke: #333333; stroke-width: 1.35; stroke-linecap: round"/>
    <path d="M 141.394 154.641294 
L 139.194 159.041294 
L 136.994 154.641294 
z
" clip-path="url(#p14421f34e0)" style="fill: #333333; stroke: #333333; stroke-width: 1.35; stroke-linecap: round"/>
   </g>
   <g id="patch_3">
    <path d="M 139.194 205.84512 
Q 139.194 220.06548 139.194 232.776494 
" clip-path="url(#p14421f34e0)" style="fill: none; stroke: #333333; stroke-width: 1.35; stroke-linecap: round"/>
    <path d="M 141.394 228.376494 
L 139.194 232.776494 
L 136.994 228.376494 
z
" clip-path="url(#p14421f34e0)" style="fill: #333333; stroke: #333333; stroke-width: 1.35; stroke-linecap: round"/>
   </g>
   <g id="patch_4">
    <path d="M 380.25 116.30952 
Q 380.25 127.89648 380.25 137.974094 
" clip-path="url(#p14421f34e0)" style="fill: none; stroke: #333333; stroke-width: 1.35; stroke-linecap: round"/>
    <path d="M 382.45 133.574094 
L 380.25 137.974094 
L 378.05 133.574094 
z
" clip-path="url(#p14421f34e0)" style="fill: #333333; stroke: #333333; stroke-width: 1.35; stroke-linecap: round"/>
   </g>
   <g id="patch_5">
    <path d="M 380.25 184.77792 
Q 380.25 196.36488 380.25 206.442494 
" clip-path="url(#p14421f34e0)" style="fill: none; stroke: #333333; stroke-width: 1.35; stroke-linecap: round"/>
    <path d="M 382.45 202.042494 
L 380.25 206.442494 
L 378.05 202.042494 
z
" clip-path="url(#p14421f34e0)" style="fill: #333333; stroke: #333333; stroke-width: 1.35; stroke-linecap: round"/>
   </g>
   <g id="patch_6">
    <path d="M 380.25 253.24632 
Q 380.25 264.83328 380.25 274.910894 
" clip-path="url(#p14421f34e0)" style="fill: none; stroke: #333333; stroke-width: 1.35; stroke-linecap: round"/>
    <path d="M 382.45 270.510894 
L 380.25 274.910894 
L 378.05 270.510894 
z
" clip-path="url(#p14421f34e0)" style="fill: #333333; stroke: #333333; stroke-width: 1.35; stroke-linecap: round"/>
   </g>
   <g id="patch_7">
    <path d="M 621.306 116.30952 
Q 621.306 127.89648 621.306 137.974094 
" clip-path="url(#p14421f34e0)" style="fill: none; stroke: #333333; stroke-width: 1.35; stroke-linecap: round"/>
    <path d="M 623.506 133.574094 
L 621.306 137.974094 
L 619.106 133.574094 
z
" clip-path="url(#p14421f34e0)" style="fill: #333333; stroke: #333333; stroke-width: 1.35; stroke-linecap: round"/>
   </g>
   <g id="patch_8">
    <path d="M 621.306 184.77792 
Q 621.306 196.36488 621.306 206.442494 
" clip-path="url(#p14421f34e0)" style="fill: none; stroke: #333333; stroke-width: 1.35; stroke-linecap: round"/>
    <path d="M 623.506 202.042494 
L 621.306 206.442494 
L 619.106 202.042494 
z
" clip-path="url(#p14421f34e0)" style="fill: #333333; stroke: #333333; stroke-width: 1.35; stroke-linecap: round"/>
   </g>
   <g id="patch_9">
    <path d="M 621.306 253.24632 
Q 621.306 264.83328 621.306 274.910894 
" clip-path="url(#p14421f34e0)" style="fill: none; stroke: #333333; stroke-width: 1.35; stroke-linecap: round"/>
    <path d="M 623.506 270.510894 
L 621.306 274.910894 
L 619.106 270.510894 
z
" clip-path="url(#p14421f34e0)" style="fill: #333333; stroke: #333333; stroke-width: 1.35; stroke-linecap: round"/>
   </g>
   <g id="patch_10">
    <path d="M 229.59 256.93308 
Q 259.722 243.76608 288.470936 231.203447 
" clip-path="url(#p14421f34e0)" style="fill: none; stroke: #333333; stroke-width: 1.35; stroke-linecap: round"/>
    <path d="M 283.111537 230.926248 
L 288.470936 231.203447 
L 285.033538 235.324647 
z
" clip-path="url(#p14421f34e0)" style="fill: #333333; stroke: #333333; stroke-width: 1.35; stroke-linecap: round"/>
   </g>
   <g id="patch_11">
    <path d="M 470.646 230.59908 
Q 500.778 230.59908 529.400654 230.59908 
" clip-path="url(#p14421f34e0)" style="fill: none; stroke: #333333; stroke-width: 1.35; stroke-linecap: round"/>
    <path d="M 524.600654 228.19908 
L 529.400654 230.59908 
L 524.600654 232.99908 
z
" clip-path="url(#p14421f34e0)" style="fill: #333333; stroke: #333333; stroke-width: 1.35; stroke-linecap: round"/>
   </g>
   <g id="patch_12">
    <path d="M 711.702 230.59908 
L 741.834 230.59908 
L 741.834 93.66228 
L 770.456654 93.66228 
" clip-path="url(#p14421f34e0)" style="fill: none; stroke: #333333; stroke-width: 1.35; stroke-linecap: round"/>
    <path d="M 765.656654 91.26228 
L 770.456654 93.66228 
L 765.656654 96.06228 
z
" clip-path="url(#p14421f34e0)" style="fill: #333333; stroke: #333333; stroke-width: 1.35; stroke-linecap: round"/>
   </g>
   <g id="patch_13">
    <path d="M 862.362 114.2028 
Q 862.362 135.79668 862.362 155.881214 
" clip-path="url(#p14421f34e0)" style="fill: none; stroke: #333333; stroke-width: 1.35; stroke-linecap: round"/>
    <path d="M 864.562 151.481214 
L 862.362 155.881214 
L 860.162 151.481214 
z
" clip-path="url(#p14421f34e0)" style="fill: #333333; stroke: #333333; stroke-width: 1.35; stroke-linecap: round"/>
   </g>
   <g id="patch_14">
    <path d="M 862.362 198.4716 
Q 862.362 210.84858 862.362 221.716214 
" clip-path="url(#p14421f34e0)" style="fill: none; stroke: #333333; stroke-width: 1.35; stroke-linecap: round"/>
    <path d="M 864.562 217.316214 
L 862.362 221.716214 
L 860.162 217.316214 
z
" clip-path="url(#p14421f34e0)" style="fill: #333333; stroke: #333333; stroke-width: 1.35; stroke-linecap: round"/>
   </g>
   <g id="patch_15">
    <path d="M 952.758 93.66228 
L 977.868 93.66228 
L 977.868 343.83528 
L 954.267346 343.83528 
" clip-path="url(#p14421f34e0)" style="fill: none; stroke: #333333; stroke-width: 1.35; stroke-linecap: round"/>
    <path d="M 959.067346 346.23528 
L 954.267346 343.83528 
L 959.067346 341.43528 
z
" clip-path="url(#p14421f34e0)" style="fill: #333333; stroke: #333333; stroke-width: 1.35; stroke-linecap: round"/>
   </g>
   <g id="patch_16">
    <path d="M 862.362 364.3758 
Q 862.362 375.43608 862.362 384.987014 
" clip-path="url(#p14421f34e0)" style="fill: none; stroke: #333333; stroke-width: 1.35; stroke-linecap: round"/>
    <path d="M 864.562 380.587014 
L 862.362 384.987014 
L 860.162 380.587014 
z
" clip-path="url(#p14421f34e0)" style="fill: #333333; stroke: #333333; stroke-width: 1.35; stroke-linecap: round"/>
   </g>
   <g id="patch_17">
    <path d="M 862.362 427.5774 
Q 862.362 438.63768 862.362 448.188614 
" clip-path="url(#p14421f34e0)" style="fill: none; stroke: #333333; stroke-width: 1.35; stroke-linecap: round"/>
    <path d="M 864.562 443.788614 
L 862.362 448.188614 
L 860.162 443.788614 
z
" clip-path="url(#p14421f34e0)" style="fill: #333333; stroke: #333333; stroke-width: 1.35; stroke-linecap: round"/>
   </g>
   <g id="patch_18">
    <path d="M 48.798 136.32336 
L 229.59 136.32336 
Q 241.6428 136.32336 241.6428 130.0032 
L 241.6428 88.92216 
Q 241.6428 82.602 229.59 82.602 
L 48.798 82.602 
Q 36.7452 82.602 36.7452 88.92216 
L 36.7452 130.0032 
Q 36.7452 136.32336 48.798 136.32336 
z
" clip-path="url(#p14421f34e0)" style="fill: #f7f9fc; stroke: #2f3a4a; stroke-width: 1.35; stroke-linejoin: miter"/>
   </g>
   <g id="patch_19">
    <path d="M 48.798 210.05856 
L 229.59 210.05856 
Q 241.6428 210.05856 241.6428 203.7384 
L 241.6428 162.65736 
Q 241.6428 156.3372 229.59 156.3372 
L 48.798 156.3372 
Q 36.7452 156.3372 36.7452 162.65736 
L 36.7452 203.7384 
Q 36.7452 210.05856 48.798 210.05856 
z
" clip-path="url(#p14421f34e0)" style="fill: #f7f9fc; stroke: #2f3a4a; stroke-width: 1.35; stroke-linejoin: miter"/>
   </g>
   <g id="patch_20">
    <path d="M 48.798 283.79376 
L 229.59 283.79376 
Q 241.6428 283.79376 241.6428 277.4736 
L 241.6428 236.39256 
Q 241.6428 230.0724 229.59 230.0724 
L 48.798 230.0724 
Q 36.7452 230.0724 36.7452 236.39256 
L 36.7452 277.4736 
Q 36.7452 283.79376 48.798 283.79376 
z
" clip-path="url(#p14421f34e0)" style="fill: #f7f9fc; stroke: #2f3a4a; stroke-width: 1.35; stroke-linejoin: miter"/>
   </g>
   <g id="patch_21">
    <path d="M 289.854 120.52296 
L 470.646 120.52296 
Q 482.6988 120.52296 482.6988 114.2028 
L 482.6988 73.12176 
Q 482.6988 66.8016 470.646 66.8016 
L 289.854 66.8016 
Q 277.8012 66.8016 277.8012 73.12176 
L 277.8012 114.2028 
Q 277.8012 120.52296 289.854 120.52296 
z
" clip-path="url(#p14421f34e0)" style="fill: #e8f3ff; stroke: #1f4e79; stroke-width: 1.35; stroke-linejoin: miter"/>
   </g>
   <g id="patch_22">
    <path d="M 289.854 188.99136 
L 470.646 188.99136 
Q 482.6988 188.99136 482.6988 182.6712 
L 482.6988 141.59016 
Q 482.6988 135.27 470.646 135.27 
L 289.854 135.27 
Q 277.8012 135.27 277.8012 141.59016 
L 277.8012 182.6712 
Q 277.8012 188.99136 289.854 188.99136 
z
" clip-path="url(#p14421f34e0)" style="fill: #e8f3ff; stroke: #1f4e79; stroke-width: 1.35; stroke-linejoin: miter"/>
   </g>
   <g id="patch_23">
    <path d="M 289.854 257.45976 
L 470.646 257.45976 
Q 482.6988 257.45976 482.6988 251.1396 
L 482.6988 210.05856 
Q 482.6988 203.7384 470.646 203.7384 
L 289.854 203.7384 
Q 277.8012 203.7384 277.8012 210.05856 
L 277.8012 251.1396 
Q 277.8012 257.45976 289.854 257.45976 
z
" clip-path="url(#p14421f34e0)" style="fill: #e8f3ff; stroke: #1f4e79; stroke-width: 1.35; stroke-linejoin: miter"/>
   </g>
   <g id="patch_24">
    <path d="M 289.854 325.92816 
L 470.646 325.92816 
Q 482.6988 325.92816 482.6988 319.608 
L 482.6988 278.52696 
Q 482.6988 272.2068 470.646 272.2068 
L 289.854 272.2068 
Q 277.8012 272.2068 277.8012 278.52696 
L 277.8012 319.608 
Q 277.8012 325.92816 289.854 325.92816 
z
" clip-path="url(#p14421f34e0)" style="fill: #e8f3ff; stroke: #1f4e79; stroke-width: 1.35; stroke-linejoin: miter"/>
   </g>
   <g id="patch_25">
    <path d="M 530.91 120.52296 
L 711.702 120.52296 
Q 723.7548 120.52296 723.7548 114.2028 
L 723.7548 73.12176 
Q 723.7548 66.8016 711.702 66.8016 
L 530.91 66.8016 
Q 518.8572 66.8016 518.8572 73.12176 
L 518.8572 114.2028 
Q 518.8572 120.52296 530.91 120.52296 
z
" clip-path="url(#p14421f34e0)" style="fill: #eaf7ea; stroke: #2e7d32; stroke-width: 1.35; stroke-linejoin: miter"/>
   </g>
   <g id="patch_26">
    <path d="M 530.91 188.99136 
L 711.702 188.99136 
Q 723.7548 188.99136 723.7548 182.6712 
L 723.7548 141.59016 
Q 723.7548 135.27 711.702 135.27 
L 530.91 135.27 
Q 518.8572 135.27 518.8572 141.59016 
L 518.8572 182.6712 
Q 518.8572 188.99136 530.91 188.99136 
z
" clip-path="url(#p14421f34e0)" style="fill: #eaf7ea; stroke: #2e7d32; stroke-width: 1.35; stroke-linejoin: miter"/>
   </g>
   <g id="patch_27">
    <path d="M 530.91 257.45976 
L 711.702 257.45976 
Q 723.7548 257.45976 723.7548 251.1396 
L 723.7548 210.05856 
Q 723.7548 203.7384 711.702 203.7384 
L 530.91 203.7384 
Q 518.8572 203.7384 518.8572 210.05856 
L 518.8572 251.1396 
Q 518.8572 257.45976 530.91 257.45976 
z
" clip-path="url(#p14421f34e0)" style="fill: #eaf7ea; stroke: #2e7d32; stroke-width: 1.35; stroke-linejoin: miter"/>
   </g>
   <g id="patch_28">
    <path d="M 530.91 325.92816 
L 711.702 325.92816 
Q 723.7548 325.92816 723.7548 319.608 
L 723.7548 278.52696 
Q 723.7548 272.2068 711.702 272.2068 
L 530.91 272.2068 
Q 518.8572 272.2068 518.8572 278.52696 
L 518.8572 319.608 
Q 518.8572 325.92816 530.91 325.92816 
z
" clip-path="url(#p14421f34e0)" style="fill: #eaf7ea; stroke: #2e7d32; stroke-width: 1.35; stroke-linejoin: miter"/>
   </g>
   <g id="patch_29">
    <path d="M 771.966 120.52296 
L 952.758 120.52296 
Q 964.8108 120.52296 964.8108 114.2028 
L 964.8108 73.12176 
Q 964.8108 66.8016 952.758 66.8016 
L 771.966 66.8016 
Q 759.9132 66.8016 759.9132 73.12176 
L 759.9132 114.2028 
Q 759.9132 120.52296 771.966 120.52296 
z
" clip-path="url(#p14421f34e0)" style="fill: #fff4cc; stroke: #8a6d1d; stroke-width: 1.35; stroke-linejoin: miter"/>
   </g>
   <g id="patch_30">
    <path d="M 771.966 204.79176 
L 952.758 204.79176 
Q 964.8108 204.79176 964.8108 198.4716 
L 964.8108 157.39056 
Q 964.8108 151.0704 952.758 151.0704 
L 771.966 151.0704 
Q 759.9132 151.0704 759.9132 157.39056 
L 759.9132 198.4716 
Q 759.9132 204.79176 771.966 204.79176 
z
" clip-path="url(#p14421f34e0)" style="fill: #fff4cc; stroke: #8a6d1d; stroke-width: 1.35; stroke-linejoin: miter"/>
   </g>
   <g id="patch_31">
    <path d="M 771.966 270.62676 
L 952.758 270.62676 
Q 964.8108 270.62676 964.8108 264.3066 
L 964.8108 223.22556 
Q 964.8108 216.9054 952.758 216.9054 
L 771.966 216.9054 
Q 759.9132 216.9054 759.9132 223.22556 
L 759.9132 264.3066 
Q 759.9132 270.62676 771.966 270.62676 
z
" clip-path="url(#p14421f34e0)" style="fill: #fff4cc; stroke: #8a6d1d; stroke-width: 1.35; stroke-linejoin: miter"/>
   </g>
   <g id="patch_32">
    <path d="M 771.966 370.69596 
L 952.758 370.69596 
Q 964.8108 370.69596 964.8108 364.3758 
L 964.8108 323.29476 
Q 964.8108 316.9746 952.758 316.9746 
L 771.966 316.9746 
Q 759.9132 316.9746 759.9132 323.29476 
L 759.9132 364.3758 
Q 759.9132 370.69596 771.966 370.69596 
z
" clip-path="url(#p14421f34e0)" style="fill: #f3e8ff; stroke: #5b2a86; stroke-width: 1.35; stroke-linejoin: miter"/>
   </g>
   <g id="patch_33">
    <path d="M 771.966 433.89756 
L 952.758 433.89756 
Q 964.8108 433.89756 964.8108 427.5774 
L 964.8108 386.49636 
Q 964.8108 380.1762 952.758 380.1762 
L 771.966 380.1762 
Q 759.9132 380.1762 759.9132 386.49636 
L 759.9132 427.5774 
Q 759.9132 433.89756 771.966 433.89756 
z
" clip-path="url(#p14421f34e0)" style="fill: #f3e8ff; stroke: #5b2a86; stroke-width: 1.35; stroke-linejoin: miter"/>
   </g>
   <g id="patch_34">
    <path d="M 771.966 497.09916 
L 952.758 497.09916 
Q 964.8108 497.09916 964.8108 490.779 
L 964.8108 449.69796 
Q 964.8108 443.3778 952.758 443.3778 
L 771.966 443.3778 
Q 759.9132 443.3778 759.9132 449.69796 
L 759.9132 490.779 
Q 759.9132 497.09916 771.966 497.09916 
z
" clip-path="url(#p14421f34e0)" style="fill: #f3e8ff; stroke: #5b2a86; stroke-width: 1.35; stroke-linejoin: miter"/>
   </g>
   <g id="text_1">
    <text style="font-weight: 700; font-size: 14.5px; font-family: 'DejaVu Sans'; text-anchor: middle; fill: #111111" x="139.194" y="46.868168" transform="rotate(-0 139.194 46.868168)">1. Ingestion &amp; Context</text>
   </g>
   <g id="text_2">
    <text style="font-size: 10.7px; font-family: 'DejaVu Sans'; text-anchor: middle; fill: #111111" x="139.194" y="113.451774" transform="rotate(-0 139.194 113.451774)">Raw evidence rows</text>
   </g>
   <g id="text_3">
    <text style="font-size: 10.7px; font-family: 'DejaVu Sans'; text-anchor: middle; fill: #111111" x="139.194" y="186.150411" transform="rotate(-0 139.194 186.150411)">Temporal Contextual Chunking</text>
   </g>
   <g id="text_4">
    <text style="font-size: 10.7px; font-family: 'DejaVu Sans'; text-anchor: middle; fill: #111111" x="139.194" y="259.885611" transform="rotate(-0 139.194 259.885611)">Temporal metadata extraction</text>
   </g>
   <g id="text_5">
    <text style="font-weight: 700; font-size: 14.5px; font-family: 'DejaVu Sans'; text-anchor: middle; fill: #111111" x="380.25" y="46.868168" transform="rotate(-0 380.25 46.868168)">2. Temporal Role Grounding</text>
   </g>
   <g id="text_6">
    <text style="font-size: 10.7px; font-family: 'DejaVu Sans'; text-anchor: middle; fill: #111111" x="380.25" y="96.614811" transform="rotate(-0 380.25 96.614811)">Query temporal intent</text>
   </g>
   <g id="text_7">
    <text style="font-size: 10.7px; font-family: 'DejaVu Sans'; fill: #111111" transform="translate(349.838594 159.546797)">Valid-time /</text>
    <text style="font-size: 10.7px; font-family: 'DejaVu Sans'; fill: #111111" transform="translate(305.832336 171.235711)">transaction-time separation</text>
   </g>
   <g id="text_8">
    <text style="font-size: 10.7px; font-family: 'DejaVu Sans'; text-anchor: middle; fill: #111111" x="380.25" y="233.551611" transform="rotate(-0 380.25 233.551611)">Temporal precision scoring</text>
   </g>
   <g id="text_9">
    <text style="font-size: 10.7px; font-family: 'DejaVu Sans'; text-anchor: middle; fill: #111111" x="380.25" y="302.020011" transform="rotate(-0 380.25 302.020011)">Temporal fusion</text>
   </g>
   <g id="text_10">
    <text style="font-weight: 700; font-size: 14.5px; font-family: 'DejaVu Sans'; text-anchor: middle; fill: #111111" x="621.306" y="46.868168" transform="rotate(-0 621.306 46.868168)">3. Evidence Finalization</text>
   </g>
   <g id="text_11">
    <text style="font-size: 10.7px; font-family: 'DejaVu Sans'; text-anchor: middle; fill: #111111" x="621.306" y="96.614811" transform="rotate(-0 621.306 96.614811)">Forbidden-time suppression</text>
   </g>
   <g id="text_12">
    <text style="font-size: 10.7px; font-family: 'DejaVu Sans'; fill: #111111" transform="translate(576.997133 159.546797)">Source / metric /</text>
    <text style="font-size: 10.7px; font-family: 'DejaVu Sans'; fill: #111111" transform="translate(569.583203 171.235711)">version adjustment</text>
   </g>
   <g id="text_13">
    <text style="font-size: 10.7px; font-family: 'DejaVu Sans'; text-anchor: middle; fill: #111111" x="621.306" y="234.588174" transform="rotate(-0 621.306 234.588174)">Slot-aware finalization</text>
   </g>
   <g id="text_14">
    <text style="font-size: 10.7px; font-family: 'DejaVu Sans'; text-anchor: middle; fill: #111111" x="621.306" y="302.020011" transform="rotate(-0 621.306 302.020011)">ChronoSanity conflict guard</text>
   </g>
   <g id="text_15">
    <text style="font-weight: 700; font-size: 14.5px; font-family: 'DejaVu Sans'; text-anchor: middle; fill: #111111" x="862.362" y="46.868168" transform="rotate(-0 862.362 46.868168)">4. Outputs &amp; Evaluation</text>
   </g>
   <g id="text_16">
    <text style="font-size: 10.7px; font-family: 'DejaVu Sans'; fill: #111111" transform="translate(814.168531 91.078397)">Attribution cards /</text>
    <text style="font-size: 10.7px; font-family: 'DejaVu Sans'; fill: #111111" transform="translate(824.879398 103.803874)">final evidence</text>
   </g>
   <g id="text_17">
    <text style="font-size: 10.2px; font-family: 'DejaVu Sans'; text-anchor: middle; fill: #111111" x="862.362" y="180.745643" transform="rotate(-0 862.362 180.745643)">Retrieval evidence scoring</text>
   </g>
   <g id="text_18">
    <text style="font-size: 9.5px; font-family: 'DejaVu Sans'; fill: #111111" transform="translate(790.619188 240.924986)">Evidence IDs, forbidden traps,</text>
    <text style="font-size: 9.5px; font-family: 'DejaVu Sans'; fill: #111111" transform="translate(808.763445 251.849986)">category-primary pass</text>
   </g>
   <g id="text_19">
    <text style="font-size: 10.5px; font-family: 'DejaVu Sans'; text-anchor: middle; fill: #111111" x="862.362" y="346.732624" transform="rotate(-0 862.362 346.732624)">Answer synthesizer</text>
   </g>
   <g id="text_20">
    <text style="font-size: 10.2px; font-family: 'DejaVu Sans'; text-anchor: middle; fill: #111111" x="862.362" y="410.839567" transform="rotate(-0 862.362 410.839567)">Answer-contract validation</text>
   </g>
   <g id="text_21">
    <text style="font-size: 10.2px; font-family: 'DejaVu Sans'; text-anchor: middle; fill: #111111" x="862.362" y="473.053043" transform="rotate(-0 862.362 473.053043)">Answer-contract scoring</text>
   </g>
  </g>
 </g>
 <defs>
  <clipPath id="p14421f34e0">
   <rect x="3.6" y="3.6" width="1004.4" height="526.68"/>
  </clipPath>
 </defs>
</svg>
