<?xml version="1.0" encoding="utf-8" standalone="no"?>
<!DOCTYPE svg PUBLIC "-//W3C//DTD SVG 1.1//EN"
  "http://www.w3.org/Graphics/SVG/1.1/DTD/svg11.dtd">
<svg xmlns:xlink="http://www.w3.org/1999/xlink" width="1144.8pt" height="604.7175pt" viewBox="0 0 1144.8 604.7175" xmlns="http://www.w3.org/2000/svg" version="1.1">
 <metadata>
  <rdf:RDF xmlns:dc="http://purl.org/dc/elements/1.1/" xmlns:cc="http://creativecommons.org/ns#" xmlns:rdf="http://www.w3.org/1999/02/22-rdf-syntax-ns#">
   <cc:Work>
    <dc:type rdf:resource="http://purl.org/dc/dcmitype/StillImage"/>
    <dc:date>2026-06-14T15:04:32.228665</dc:date>
    <dc:format>image/svg+xml</dc:format>
    <dc:creator>
     <cc:Agent>
      <dc:title>Matplotlib v3.11.0, https://matplotlib.org/</dc:title>
     </cc:Agent>
    </dc:creator>
   </cc:Work>
  </rdf:RDF>
 </metadata>
 <defs>
  <style type="text/css">*{stroke-linejoin: round; stroke-linecap: butt}</style>
 </defs>
 <g id="figure_1">
  <g id="patch_1">
   <path d="M 0 604.7175
L 1144.8 604.7175
L 1144.8 0
L 0 0
z
" style="fill: #ffffff"/>
  </g>
  <g id="axes_1">
   <g id="patch_2">
    <path d="M 52.416 170.2759
L 244.584 170.2759
Q 267.192 170.2759 267.192 159.0327
L 267.192 100.0059
Q 267.192 88.7627 244.584 88.7627
L 52.416 88.7627
Q 29.808 88.7627 29.808 100.0059
L 29.808 159.0327
Q 29.808 170.2759 52.416 170.2759
z
" clip-path="url(#pcaac9bda4f)" style="fill: #f6f7fb; stroke: #333333; stroke-width: 1.4; stroke-linejoin: miter"/>
   </g>
   <g id="patch_3">
    <path d="M 289.8 170.2759
L 481.968 170.2759
Q 504.576 170.2759 504.576 159.0327
L 504.576 100.0059
Q 504.576 88.7627 481.968 88.7627
L 289.8 88.7627
Q 267.192 88.7627 267.192 100.0059
L 267.192 159.0327
Q 267.192 170.2759 289.8 170.2759
z
" clip-path="url(#pcaac9bda4f)" style="fill: #f6f7fb; stroke: #333333; stroke-width: 1.4; stroke-linejoin: miter"/>
   </g>
   <g id="patch_4">
    <path d="M 527.184 170.2759
L 719.352 170.2759
Q 741.96 170.2759 741.96 159.0327
L 741.96 100.0059
Q 741.96 88.7627 719.352 88.7627
L 527.184 88.7627
Q 504.576 88.7627 504.576 100.0059
L 504.576 159.0327
Q 504.576 170.2759 527.184 170.2759
z
" clip-path="url(#pcaac9bda4f)" style="fill: #f6f7fb; stroke: #333333; stroke-width: 1.4; stroke-linejoin: miter"/>
   </g>
   <g id="patch_5">
    <path d="M 764.568 170.2759
L 956.736 170.2759
Q 979.344 170.2759 979.344 159.0327
L 979.344 100.0059
Q 979.344 88.7627 956.736 88.7627
L 764.568 88.7627
Q 741.96 88.7627 741.96 100.0059
L 741.96 159.0327
Q 741.96 170.2759 764.568 170.2759
z
" clip-path="url(#pcaac9bda4f)" style="fill: #f6f7fb; stroke: #333333; stroke-width: 1.4; stroke-linejoin: miter"/>
   </g>
   <g id="patch_6">
    <path d="M 52.416 282.7079
L 244.584 282.7079
Q 267.192 282.7079 267.192 271.4647
L 267.192 212.4379
Q 267.192 201.1947 244.584 201.1947
L 52.416 201.1947
Q 29.808 201.1947 29.808 212.4379
L 29.808 271.4647
Q 29.808 282.7079 52.416 282.7079
z
" clip-path="url(#pcaac9bda4f)" style="fill: #e9f4ff; stroke: #333333; stroke-width: 1.4; stroke-linejoin: miter"/>
   </g>
   <g id="patch_7">
    <path d="M 289.8 282.7079
L 481.968 282.7079
Q 504.576 282.7079 504.576 271.4647
L 504.576 212.4379
Q 504.576 201.1947 481.968 201.1947
L 289.8 201.1947
Q 267.192 201.1947 267.192 212.4379
L 267.192 271.4647
Q 267.192 282.7079 289.8 282.7079
z
" clip-path="url(#pcaac9bda4f)" style="fill: #e9f4ff; stroke: #333333; stroke-width: 1.4; stroke-linejoin: miter"/>
   </g>
   <g id="patch_8">
    <path d="M 527.184 282.7079
L 719.352 282.7079
Q 741.96 282.7079 741.96 271.4647
L 741.96 212.4379
Q 741.96 201.1947 719.352 201.1947
L 527.184 201.1947
Q 504.576 201.1947 504.576 212.4379
L 504.576 271.4647
Q 504.576 282.7079 527.184 282.7079
z
" clip-path="url(#pcaac9bda4f)" style="fill: #e9f4ff; stroke: #333333; stroke-width: 1.4; stroke-linejoin: miter"/>
   </g>
   <g id="patch_9">
    <path d="M 764.568 282.7079
L 956.736 282.7079
Q 979.344 282.7079 979.344 271.4647
L 979.344 212.4379
Q 979.344 201.1947 956.736 201.1947
L 764.568 201.1947
Q 741.96 201.1947 741.96 212.4379
L 741.96 271.4647
Q 741.96 282.7079 764.568 282.7079
z
" clip-path="url(#pcaac9bda4f)" style="fill: #e9f4ff; stroke: #333333; stroke-width: 1.4; stroke-linejoin: miter"/>
   </g>
   <g id="patch_10">
    <path d="M 52.416 395.1399
L 244.584 395.1399
Q 267.192 395.1399 267.192 383.8967
L 267.192 324.8699
Q 267.192 313.6267 244.584 313.6267
L 52.416 313.6267
Q 29.808 313.6267 29.808 324.8699
L 29.808 383.8967
Q 29.808 395.1399 52.416 395.1399
z
" clip-path="url(#pcaac9bda4f)" style="fill: #e9f4ff; stroke: #333333; stroke-width: 1.4; stroke-linejoin: miter"/>
   </g>
   <g id="patch_11">
    <path d="M 289.8 395.1399
L 481.968 395.1399
Q 504.576 395.1399 504.576 383.8967
L 504.576 324.8699
Q 504.576 313.6267 481.968 313.6267
L 289.8 313.6267
Q 267.192 313.6267 267.192 324.8699
L 267.192 383.8967
Q 267.192 395.1399 289.8 395.1399
z
" clip-path="url(#pcaac9bda4f)" style="fill: #e9f4ff; stroke: #333333; stroke-width: 1.4; stroke-linejoin: miter"/>
   </g>
   <g id="patch_12">
    <path d="M 527.184 395.1399
L 719.352 395.1399
Q 741.96 395.1399 741.96 383.8967
L 741.96 324.8699
Q 741.96 313.6267 719.352 313.6267
L 527.184 313.6267
Q 504.576 313.6267 504.576 324.8699
L 504.576 383.8967
Q 504.576 395.1399 527.184 395.1399
z
" clip-path="url(#pcaac9bda4f)" style="fill: #e5f7e9; stroke: #333333; stroke-width: 1.4; stroke-linejoin: miter"/>
   </g>
   <g id="patch_13">
    <path d="M 764.568 395.1399
L 956.736 395.1399
Q 979.344 395.1399 979.344 383.8967
L 979.344 324.8699
Q 979.344 313.6267 956.736 313.6267
L 764.568 313.6267
Q 741.96 313.6267 741.96 324.8699
L 741.96 383.8967
Q 741.96 395.1399 764.568 395.1399
z
" clip-path="url(#pcaac9bda4f)" style="fill: #e5f7e9; stroke: #333333; stroke-width: 1.4; stroke-linejoin: miter"/>
   </g>
   <g id="patch_14">
    <path d="M 52.416 507.5719
L 244.584 507.5719
Q 267.192 507.5719 267.192 496.3287
L 267.192 437.3019
Q 267.192 426.0587 244.584 426.0587
L 52.416 426.0587
Q 29.808 426.0587 29.808 437.3019
L 29.808 496.3287
Q 29.808 507.5719 52.416 507.5719
z
" clip-path="url(#pcaac9bda4f)" style="fill: #e5f7e9; stroke: #333333; stroke-width: 1.4; stroke-linejoin: miter"/>
   </g>
   <g id="patch_15">
    <path d="M 289.8 507.5719
L 481.968 507.5719
Q 504.576 507.5719 504.576 496.3287
L 504.576 437.3019
Q 504.576 426.0587 481.968 426.0587
L 289.8 426.0587
Q 267.192 426.0587 267.192 437.3019
L 267.192 496.3287
Q 267.192 507.5719 289.8 507.5719
z
" clip-path="url(#pcaac9bda4f)" style="fill: #e5f7e9; stroke: #333333; stroke-width: 1.4; stroke-linejoin: miter"/>
   </g>
   <g id="patch_16">
    <path d="M 246.58483 129.80038
Q 267.191429 129.80038 286.23278 129.80038
" clip-path="url(#pcaac9bda4f)" style="fill: none; stroke: #333333; stroke-width: 1.4; stroke-linecap: round"/>
    <path d="M 280.63278 127.00038
L 286.23278 129.80038
L 280.63278 132.60038
" clip-path="url(#pcaac9bda4f)" style="fill: none; stroke: #333333; stroke-width: 1.4; stroke-linecap: round"/>
   </g>
   <g id="patch_17">
    <path d="M 483.96883 129.80038
Q 504.575429 129.80038 523.61678 129.80038
" clip-path="url(#pcaac9bda4f)" style="fill: none; stroke: #333333; stroke-width: 1.4; stroke-linecap: round"/>
    <path d="M 518.01678 127.00038
L 523.61678 129.80038
L 518.01678 132.60038
" clip-path="url(#pcaac9bda4f)" style="fill: none; stroke: #333333; stroke-width: 1.4; stroke-linecap: round"/>
   </g>
   <g id="patch_18">
    <path d="M 721.35283 129.80038
Q 741.959429 129.80038 761.00078 129.80038
" clip-path="url(#pcaac9bda4f)" style="fill: none; stroke: #333333; stroke-width: 1.4; stroke-linecap: round"/>
    <path d="M 755.40078 127.00038
L 761.00078 129.80038
L 755.40078 132.60038
" clip-path="url(#pcaac9bda4f)" style="fill: none; stroke: #333333; stroke-width: 1.4; stroke-linecap: round"/>
   </g>
   <g id="patch_19">
    <path d="M 954.752418 130.046994
Q 504.577267 186.016223 55.955404 241.792334
" clip-path="url(#pcaac9bda4f)" style="fill: none; stroke: #333333; stroke-width: 1.4; stroke-linecap: round"/>
    <path d="M 61.858076 243.880026
L 55.955404 241.792334
L 61.167161 238.322811
" clip-path="url(#pcaac9bda4f)" style="fill: none; stroke: #333333; stroke-width: 1.4; stroke-linecap: round"/>
   </g>
   <g id="patch_20">
    <path d="M 246.58483 242.23238
Q 267.191429 242.23238 286.23278 242.23238
" clip-path="url(#pcaac9bda4f)" style="fill: none; stroke: #333333; stroke-width: 1.4; stroke-linecap: round"/>
    <path d="M 280.63278 239.43238
L 286.23278 242.23238
L 280.63278 245.03238
" clip-path="url(#pcaac9bda4f)" style="fill: none; stroke: #333333; stroke-width: 1.4; stroke-linecap: round"/>
   </g>
   <g id="patch_21">
    <path d="M 483.96883 242.23238
Q 504.575429 242.23238 523.61678 242.23238
" clip-path="url(#pcaac9bda4f)" style="fill: none; stroke: #333333; stroke-width: 1.4; stroke-linecap: round"/>
    <path d="M 518.01678 239.43238
L 523.61678 242.23238
L 518.01678 245.03238
" clip-path="url(#pcaac9bda4f)" style="fill: none; stroke: #333333; stroke-width: 1.4; stroke-linecap: round"/>
   </g>
   <g id="patch_22">
    <path d="M 721.35283 242.23238
Q 741.959429 242.23238 761.00078 242.23238
" clip-path="url(#pcaac9bda4f)" style="fill: none; stroke: #333333; stroke-width: 1.4; stroke-linecap: round"/>
    <path d="M 755.40078 239.43238
L 761.00078 242.23238
L 755.40078 245.03238
" clip-path="url(#pcaac9bda4f)" style="fill: none; stroke: #333333; stroke-width: 1.4; stroke-linecap: round"/>
   </g>
   <g id="patch_23">
    <path d="M 954.752418 242.478994
Q 504.577267 298.448223 55.955404 354.224334
" clip-path="url(#pcaac9bda4f)" style="fill: none; stroke: #333333; stroke-width: 1.4; stroke-linecap: round"/>
    <path d="M 61.858076 356.312026
L 55.955404 354.224334
L 61.167161 350.754811
" clip-path="url(#pcaac9bda4f)" style="fill: none; stroke: #333333; stroke-width: 1.4; stroke-linecap: round"/>
   </g>
   <g id="patch_24">
    <path d="M 246.58483 354.66438
Q 267.191429 354.66438 286.23278 354.66438
" clip-path="url(#pcaac9bda4f)" style="fill: none; stroke: #333333; stroke-width: 1.4; stroke-linecap: round"/>
    <path d="M 280.63278 351.86438
L 286.23278 354.66438
L 280.63278 357.46438
" clip-path="url(#pcaac9bda4f)" style="fill: none; stroke: #333333; stroke-width: 1.4; stroke-linecap: round"/>
   </g>
   <g id="patch_25">
    <path d="M 483.96883 354.66438
Q 504.575429 354.66438 523.61678 354.66438
" clip-path="url(#pcaac9bda4f)" style="fill: none; stroke: #333333; stroke-width: 1.4; stroke-linecap: round"/>
    <path d="M 518.01678 351.86438
L 523.61678 354.66438
L 518.01678 357.46438
" clip-path="url(#pcaac9bda4f)" style="fill: none; stroke: #333333; stroke-width: 1.4; stroke-linecap: round"/>
   </g>
   <g id="patch_26">
    <path d="M 721.35283 354.66438
Q 741.959429 354.66438 761.00078 354.66438
" clip-path="url(#pcaac9bda4f)" style="fill: none; stroke: #333333; stroke-width: 1.4; stroke-linecap: round"/>
    <path d="M 755.40078 351.86438
L 761.00078 354.66438
L 755.40078 357.46438
" clip-path="url(#pcaac9bda4f)" style="fill: none; stroke: #333333; stroke-width: 1.4; stroke-linecap: round"/>
   </g>
   <g id="patch_27">
    <path d="M 954.752418 354.910994
Q 504.577267 410.880223 55.955404 466.656334
" clip-path="url(#pcaac9bda4f)" style="fill: none; stroke: #333333; stroke-width: 1.4; stroke-linecap: round"/>
    <path d="M 61.858076 468.744026
L 55.955404 466.656334
L 61.167161 463.186811
" clip-path="url(#pcaac9bda4f)" style="fill: none; stroke: #333333; stroke-width: 1.4; stroke-linecap: round"/>
   </g>
   <g id="patch_28">
    <path d="M 246.58483 467.09638
Q 267.191429 467.09638 286.23278 467.09638
" clip-path="url(#pcaac9bda4f)" style="fill: none; stroke: #333333; stroke-width: 1.4; stroke-linecap: round"/>
    <path d="M 280.63278 464.29638
L 286.23278 467.09638
L 280.63278 469.89638
" clip-path="url(#pcaac9bda4f)" style="fill: none; stroke: #333333; stroke-width: 1.4; stroke-linecap: round"/>
   </g>
   <g id="patch_29">
    <path d="M 764.568 603.1391
L 1001.952 603.1391
Q 1024.56 603.1391 1024.56 591.8959
L 1024.56 535.6799
Q 1024.56 524.4367 1001.952 524.4367
L 764.568 524.4367
Q 741.96 524.4367 741.96 535.6799
L 741.96 591.8959
Q 741.96 603.1391 764.568 603.1391
z
" clip-path="url(#pcaac9bda4f)" style="fill: #fff4d6; stroke: #333333; stroke-width: 1.4; stroke-linejoin: miter"/>
   </g>
   <g id="patch_30">
    <path d="M 866.452682 385.893116
Q 871.955957 459.787716 877.342981 532.121391
" clip-path="url(#pcaac9bda4f)" style="fill: none; stroke: #333333; stroke-width: 1.4; stroke-linecap: round"/>
    <path d="M 879.719342 526.328904
L 877.342981 532.121391
L 874.134808 526.74481
" clip-path="url(#pcaac9bda4f)" style="fill: none; stroke: #333333; stroke-width: 1.4; stroke-linecap: round"/>
   </g>
   <g id="text_1">
    <!-- Raw evidence rows -->
    <g transform="translate(100.435937 132.117347) scale(0.1 -0.1)">
     <defs>
      <path id="DejaVuSans-35" d="M 2841 2188
Q 3044 2119 3236 1894
Q 3428 1669 3622 1275
L 4263 0
L 3584 0
L 2988 1197
Q 2756 1666 2539 1819
Q 2322 1972 1947 1972
L 1259 1972
L 1259 0
L 628 0
L 628 4666
L 2053 4666
Q 2853 4666 3247 4331
Q 3641 3997 3641 3322
Q 3641 2881 3436 2590
Q 3231 2300 2841 2188
z
M 1259 4147
L 1259 2491
L 2053 2491
Q 2509 2491 2742 2702
Q 2975 2913 2975 3322
Q 2975 3731 2742 3939
Q 2509 4147 2053 4147
L 1259 4147
z
" transform="scale(0.015625)"/>
      <path id="DejaVuSans-44" d="M 2194 1759
Q 1497 1759 1228 1600
Q 959 1441 959 1056
Q 959 750 1161 570
Q 1363 391 1709 391
Q 2188 391 2477 730
Q 2766 1069 2766 1631
L 2766 1759
L 2194 1759
z
M 3341 1997
L 3341 0
L 2766 0
L 2766 531
Q 2569 213 2275 61
Q 1981 -91 1556 -91
Q 1019 -91 701 211
Q 384 513 384 1019
Q 384 1609 779 1909
Q 1175 2209 1959 2209
L 2766 2209
L 2766 2266
Q 2766 2663 2505 2880
Q 2244 3097 1772 3097
Q 1472 3097 1187 3025
Q 903 2953 641 2809
L 641 3341
Q 956 3463 1253 3523
Q 1550 3584 1831 3584
Q 2591 3584 2966 3190
Q 3341 2797 3341 1997
z
" transform="scale(0.015625)"/>
      <path id="DejaVuSans-5a" d="M 269 3500
L 844 3500
L 1563 769
L 2278 3500
L 2956 3500
L 3675 769
L 4391 3500
L 4966 3500
L 4050 0
L 3372 0
L 2619 2869
L 1863 0
L 1184 0
L 269 3500
z
" transform="scale(0.015625)"/>
      <path id="DejaVuSans-3" transform="scale(0.015625)"/>
      <path id="DejaVuSans-48" d="M 3597 1894
L 3597 1613
L 953 1613
Q 991 1019 1311 708
Q 1631 397 2203 397
Q 2534 397 2845 478
Q 3156 559 3463 722
L 3463 178
Q 3153 47 2828 -22
Q 2503 -91 2169 -91
Q 1331 -91 842 396
Q 353 884 353 1716
Q 353 2575 817 3079
Q 1281 3584 2069 3584
Q 2775 3584 3186 3129
Q 3597 2675 3597 1894
z
M 3022 2063
Q 3016 2534 2758 2815
Q 2500 3097 2075 3097
Q 1594 3097 1305 2825
Q 1016 2553 972 2059
L 3022 2063
z
" transform="scale(0.015625)"/>
      <path id="DejaVuSans-59" d="M 191 3500
L 800 3500
L 1894 563
L 2988 3500
L 3597 3500
L 2284 0
L 1503 0
L 191 3500
z
" transform="scale(0.015625)"/>
      <path id="DejaVuSans-4c" d="M 603 3500
L 1178 3500
L 1178 0
L 603 0
L 603 3500
z
M 603 4863
L 1178 4863
L 1178 4134
L 603 4134
L 603 4863
z
" transform="scale(0.015625)"/>
      <path id="DejaVuSans-47" d="M 2906 2969
L 2906 4863
L 3481 4863
L 3481 0
L 2906 0
L 2906 525
Q 2725 213 2448 61
Q 2172 -91 1784 -91
Q 1150 -91 751 415
Q 353 922 353 1747
Q 353 2572 751 3078
Q 1150 3584 1784 3584
Q 2172 3584 2448 3432
Q 2725 3281 2906 2969
z
M 947 1747
Q 947 1113 1208 752
Q 1469 391 1925 391
Q 2381 391 2643 752
Q 2906 1113 2906 1747
Q 2906 2381 2643 2742
Q 2381 3103 1925 3103
Q 1469 3103 1208 2742
Q 947 2381 947 1747
z
" transform="scale(0.015625)"/>
      <path id="DejaVuSans-51" d="M 3513 2113
L 3513 0
L 2938 0
L 2938 2094
Q 2938 2591 2744 2837
Q 2550 3084 2163 3084
Q 1697 3084 1428 2787
Q 1159 2491 1159 1978
L 1159 0
L 581 0
L 581 3500
L 1159 3500
L 1159 2956
Q 1366 3272 1645 3428
Q 1925 3584 2291 3584
Q 2894 3584 3203 3211
Q 3513 2838 3513 2113
z
" transform="scale(0.015625)"/>
      <path id="DejaVuSans-46" d="M 3122 3366
L 3122 2828
Q 2878 2963 2633 3030
Q 2388 3097 2138 3097
Q 1578 3097 1268 2742
Q 959 2388 959 1747
Q 959 1106 1268 751
Q 1578 397 2138 397
Q 2388 397 2633 464
Q 2878 531 3122 666
L 3122 134
Q 2881 22 2623 -34
Q 2366 -91 2075 -91
Q 1284 -91 818 406
Q 353 903 353 1747
Q 353 2603 823 3093
Q 1294 3584 2113 3584
Q 2378 3584 2631 3529
Q 2884 3475 3122 3366
z
" transform="scale(0.015625)"/>
      <path id="DejaVuSans-55" d="M 2631 2963
Q 2534 3019 2420 3045
Q 2306 3072 2169 3072
Q 1681 3072 1420 2755
Q 1159 2438 1159 1844
L 1159 0
L 581 0
L 581 3500
L 1159 3500
L 1159 2956
Q 1341 3275 1631 3429
Q 1922 3584 2338 3584
Q 2397 3584 2469 3576
Q 2541 3569 2628 3553
L 2631 2963
z
" transform="scale(0.015625)"/>
      <path id="DejaVuSans-52" d="M 1959 3097
Q 1497 3097 1228 2736
Q 959 2375 959 1747
Q 959 1119 1226 758
Q 1494 397 1959 397
Q 2419 397 2687 759
Q 2956 1122 2956 1747
Q 2956 2369 2687 2733
Q 2419 3097 1959 3097
z
M 1959 3584
Q 2709 3584 3137 3096
Q 3566 2609 3566 1747
Q 3566 888 3137 398
Q 2709 -91 1959 -91
Q 1206 -91 779 398
Q 353 888 353 1747
Q 353 2609 779 3096
Q 1206 3584 1959 3584
z
" transform="scale(0.015625)"/>
      <path id="DejaVuSans-56" d="M 2834 3397
L 2834 2853
Q 2591 2978 2328 3040
Q 2066 3103 1784 3103
Q 1356 3103 1142 2972
Q 928 2841 928 2578
Q 928 2378 1081 2264
Q 1234 2150 1697 2047
L 1894 2003
Q 2506 1872 2764 1633
Q 3022 1394 3022 966
Q 3022 478 2636 193
Q 2250 -91 1575 -91
Q 1294 -91 989 -36
Q 684 19 347 128
L 347 722
Q 666 556 975 473
Q 1284 391 1588 391
Q 1994 391 2212 530
Q 2431 669 2431 922
Q 2431 1156 2273 1281
Q 2116 1406 1581 1522
L 1381 1569
Q 847 1681 609 1914
Q 372 2147 372 2553
Q 372 3047 722 3315
Q 1072 3584 1716 3584
Q 2034 3584 2315 3537
Q 2597 3491 2834 3397
z
" transform="scale(0.015625)"/>
     </defs>
     <use xlink:href="#DejaVuSans-35"/>
     <use xlink:href="#DejaVuSans-44" transform="translate(67.28125 0)"/>
     <use xlink:href="#DejaVuSans-5a" transform="translate(128.5625 0)"/>
     <use xlink:href="#DejaVuSans-3" transform="translate(210.34375 0)"/>
     <use xlink:href="#DejaVuSans-48" transform="translate(242.125 0)"/>
     <use xlink:href="#DejaVuSans-59" transform="translate(303.65625 0)"/>
     <use xlink:href="#DejaVuSans-4c" transform="translate(362.84375 0)"/>
     <use xlink:href="#DejaVuSans-47" transform="translate(390.625 0)"/>
     <use xlink:href="#DejaVuSans-48" transform="translate(454.109375 0)"/>
     <use xlink:href="#DejaVuSans-51" transform="translate(515.640625 0)"/>
     <use xlink:href="#DejaVuSans-46" transform="translate(579.015625 0)"/>
     <use xlink:href="#DejaVuSans-48" transform="translate(634 0)"/>
     <use xlink:href="#DejaVuSans-3" transform="translate(695.53125 0)"/>
     <use xlink:href="#DejaVuSans-55" transform="translate(727.3125 0)"/>
     <use xlink:href="#DejaVuSans-52" transform="translate(766.21875 0)"/>
     <use xlink:href="#DejaVuSans-5a" transform="translate(827.40625 0)"/>
     <use xlink:href="#DejaVuSans-56" transform="translate(909.1875 0)"/>
    </g>
   </g>
   <g id="text_2">
    <!-- Temporal Contextual Chunking -->
    <g transform="translate(308.976969 132.117347) scale(0.1 -0.1)">
     <defs>
      <path id="DejaVuSans-37" d="M -19 4666
L 3928 4666
L 3928 4134
L 2272 4134
L 2272 0
L 1638 0
L 1638 4134
L -19 4134
L -19 4666
z
" transform="scale(0.015625)"/>
      <path id="DejaVuSans-50" d="M 3328 2828
Q 3544 3216 3844 3400
Q 4144 3584 4550 3584
Q 5097 3584 5394 3201
Q 5691 2819 5691 2113
L 5691 0
L 5113 0
L 5113 2094
Q 5113 2597 4934 2840
Q 4756 3084 4391 3084
Q 3944 3084 3684 2787
Q 3425 2491 3425 1978
L 3425 0
L 2847 0
L 2847 2094
Q 2847 2600 2669 2842
Q 2491 3084 2119 3084
Q 1678 3084 1418 2786
Q 1159 2488 1159 1978
L 1159 0
L 581 0
L 581 3500
L 1159 3500
L 1159 2956
Q 1356 3278 1631 3431
Q 1906 3584 2284 3584
Q 2666 3584 2933 3390
Q 3200 3197 3328 2828
z
" transform="scale(0.015625)"/>
      <path id="DejaVuSans-53" d="M 1159 525
L 1159 -1331
L 581 -1331
L 581 3500
L 1159 3500
L 1159 2969
Q 1341 3281 1617 3432
Q 1894 3584 2278 3584
Q 2916 3584 3314 3078
Q 3713 2572 3713 1747
Q 3713 922 3314 415
Q 2916 -91 2278 -91
Q 1894 -91 1617 61
Q 1341 213 1159 525
z
M 3116 1747
Q 3116 2381 2855 2742
Q 2594 3103 2138 3103
Q 1681 3103 1420 2742
Q 1159 2381 1159 1747
Q 1159 1113 1420 752
Q 1681 391 2138 391
Q 2594 391 2855 752
Q 3116 1113 3116 1747
z
" transform="scale(0.015625)"/>
      <path id="DejaVuSans-4f" d="M 603 4863
L 1178 4863
L 1178 0
L 603 0
L 603 4863
z
" transform="scale(0.015625)"/>
      <path id="DejaVuSans-26" d="M 4122 4306
L 4122 3641
Q 3803 3938 3442 4084
Q 3081 4231 2675 4231
Q 1875 4231 1450 3742
Q 1025 3253 1025 2328
Q 1025 1406 1450 917
Q 1875 428 2675 428
Q 3081 428 3442 575
Q 3803 722 4122 1019
L 4122 359
Q 3791 134 3420 21
Q 3050 -91 2638 -91
Q 1578 -91 968 557
Q 359 1206 359 2328
Q 359 3453 968 4101
Q 1578 4750 2638 4750
Q 3056 4750 3426 4639
Q 3797 4528 4122 4306
z
" transform="scale(0.015625)"/>
      <path id="DejaVuSans-57" d="M 1172 4494
L 1172 3500
L 2356 3500
L 2356 3053
L 1172 3053
L 1172 1153
Q 1172 725 1289 603
Q 1406 481 1766 481
L 2356 481
L 2356 0
L 1766 0
Q 1100 0 847 248
Q 594 497 594 1153
L 594 3053
L 172 3053
L 172 3500
L 594 3500
L 594 4494
L 1172 4494
z
" transform="scale(0.015625)"/>
      <path id="DejaVuSans-5b" d="M 3513 3500
L 2247 1797
L 3578 0
L 2900 0
L 1881 1375
L 863 0
L 184 0
L 1544 1831
L 300 3500
L 978 3500
L 1906 2253
L 2834 3500
L 3513 3500
z
" transform="scale(0.015625)"/>
      <path id="DejaVuSans-58" d="M 544 1381
L 544 3500
L 1119 3500
L 1119 1403
Q 1119 906 1312 657
Q 1506 409 1894 409
Q 2359 409 2629 706
Q 2900 1003 2900 1516
L 2900 3500
L 3475 3500
L 3475 0
L 2900 0
L 2900 538
Q 2691 219 2414 64
Q 2138 -91 1772 -91
Q 1169 -91 856 284
Q 544 659 544 1381
z
M 1991 3584
L 1991 3584
z
" transform="scale(0.015625)"/>
      <path id="DejaVuSans-4b" d="M 3513 2113
L 3513 0
L 2938 0
L 2938 2094
Q 2938 2591 2744 2837
Q 2550 3084 2163 3084
Q 1697 3084 1428 2787
Q 1159 2491 1159 1978
L 1159 0
L 581 0
L 581 4863
L 1159 4863
L 1159 2956
Q 1366 3272 1645 3428
Q 1925 3584 2291 3584
Q 2894 3584 3203 3211
Q 3513 2838 3513 2113
z
" transform="scale(0.015625)"/>
      <path id="DejaVuSans-4e" d="M 581 4863
L 1159 4863
L 1159 1991
L 2875 3500
L 3609 3500
L 1753 1863
L 3688 0
L 2938 0
L 1159 1709
L 1159 0
L 581 0
L 581 4863
z
" transform="scale(0.015625)"/>
      <path id="DejaVuSans-4a" d="M 2906 1791
Q 2906 2416 2648 2759
Q 2391 3103 1925 3103
Q 1463 3103 1205 2759
Q 947 2416 947 1791
Q 947 1169 1205 825
Q 1463 481 1925 481
Q 2391 481 2648 825
Q 2906 1169 2906 1791
z
M 3481 434
Q 3481 -459 3084 -895
Q 2688 -1331 1869 -1331
Q 1566 -1331 1297 -1286
Q 1028 -1241 775 -1147
L 775 -588
Q 1028 -725 1275 -790
Q 1522 -856 1778 -856
Q 2344 -856 2625 -561
Q 2906 -266 2906 331
L 2906 616
Q 2728 306 2450 153
Q 2172 0 1784 0
Q 1141 0 747 490
Q 353 981 353 1791
Q 353 2603 747 3093
Q 1141 3584 1784 3584
Q 2172 3584 2450 3431
Q 2728 3278 2906 2969
L 2906 3500
L 3481 3500
L 3481 434
z
" transform="scale(0.015625)"/>
     </defs>
     <use xlink:href="#DejaVuSans-37"/>
     <use xlink:href="#DejaVuSans-48" transform="translate(44.09375 0)"/>
     <use xlink:href="#DejaVuSans-50" transform="translate(105.625 0)"/>
     <use xlink:href="#DejaVuSans-53" transform="translate(203.03125 0)"/>
     <use xlink:href="#DejaVuSans-52" transform="translate(266.515625 0)"/>
     <use xlink:href="#DejaVuSans-55" transform="translate(327.703125 0)"/>
     <use xlink:href="#DejaVuSans-44" transform="translate(368.8125 0)"/>
     <use xlink:href="#DejaVuSans-4f" transform="translate(430.09375 0)"/>
     <use xlink:href="#DejaVuSans-3" transform="translate(457.875 0)"/>
     <use xlink:href="#DejaVuSans-26" transform="translate(489.65625 0)"/>
     <use xlink:href="#DejaVuSans-52" transform="translate(559.484375 0)"/>
     <use xlink:href="#DejaVuSans-51" transform="translate(620.671875 0)"/>
     <use xlink:href="#DejaVuSans-57" transform="translate(684.046875 0)"/>
     <use xlink:href="#DejaVuSans-48" transform="translate(723.25 0)"/>
     <use xlink:href="#DejaVuSans-5b" transform="translate(783.03125 0)"/>
     <use xlink:href="#DejaVuSans-57" transform="translate(842.21875 0)"/>
     <use xlink:href="#DejaVuSans-58" transform="translate(881.421875 0)"/>
     <use xlink:href="#DejaVuSans-44" transform="translate(944.796875 0)"/>
     <use xlink:href="#DejaVuSans-4f" transform="translate(1006.078125 0)"/>
     <use xlink:href="#DejaVuSans-3" transform="translate(1033.859375 0)"/>
     <use xlink:href="#DejaVuSans-26" transform="translate(1065.640625 0)"/>
     <use xlink:href="#DejaVuSans-4b" transform="translate(1135.46875 0)"/>
     <use xlink:href="#DejaVuSans-58" transform="translate(1198.84375 0)"/>
     <use xlink:href="#DejaVuSans-51" transform="translate(1262.21875 0)"/>
     <use xlink:href="#DejaVuSans-4e" transform="translate(1325.59375 0)"/>
     <use xlink:href="#DejaVuSans-4c" transform="translate(1383.5 0)"/>
     <use xlink:href="#DejaVuSans-51" transform="translate(1411.28125 0)"/>
     <use xlink:href="#DejaVuSans-4a" transform="translate(1474.65625 0)"/>
    </g>
   </g>
   <g id="text_3">
    <!-- Temporal metadata extraction -->
    <g transform="translate(547.607844 132.117347) scale(0.1 -0.1)">
     <use xlink:href="#DejaVuSans-37"/>
     <use xlink:href="#DejaVuSans-48" transform="translate(44.09375 0)"/>
     <use xlink:href="#DejaVuSans-50" transform="translate(105.625 0)"/>
     <use xlink:href="#DejaVuSans-53" transform="translate(203.03125 0)"/>
     <use xlink:href="#DejaVuSans-52" transform="translate(266.515625 0)"/>
     <use xlink:href="#DejaVuSans-55" transform="translate(327.703125 0)"/>
     <use xlink:href="#DejaVuSans-44" transform="translate(368.8125 0)"/>
     <use xlink:href="#DejaVuSans-4f" transform="translate(430.09375 0)"/>
     <use xlink:href="#DejaVuSans-3" transform="translate(457.875 0)"/>
     <use xlink:href="#DejaVuSans-50" transform="translate(489.65625 0)"/>
     <use xlink:href="#DejaVuSans-48" transform="translate(587.0625 0)"/>
     <use xlink:href="#DejaVuSans-57" transform="translate(648.59375 0)"/>
     <use xlink:href="#DejaVuSans-44" transform="translate(687.796875 0)"/>
     <use xlink:href="#DejaVuSans-47" transform="translate(749.078125 0)"/>
     <use xlink:href="#DejaVuSans-44" transform="translate(812.5625 0)"/>
     <use xlink:href="#DejaVuSans-57" transform="translate(873.84375 0)"/>
     <use xlink:href="#DejaVuSans-44" transform="translate(913.046875 0)"/>
     <use xlink:href="#DejaVuSans-3" transform="translate(974.328125 0)"/>
     <use xlink:href="#DejaVuSans-48" transform="translate(1006.109375 0)"/>
     <use xlink:href="#DejaVuSans-5b" transform="translate(1065.890625 0)"/>
     <use xlink:href="#DejaVuSans-57" transform="translate(1125.078125 0)"/>
     <use xlink:href="#DejaVuSans-55" transform="translate(1164.28125 0)"/>
     <use xlink:href="#DejaVuSans-44" transform="translate(1205.390625 0)"/>
     <use xlink:href="#DejaVuSans-46" transform="translate(1266.671875 0)"/>
     <use xlink:href="#DejaVuSans-57" transform="translate(1321.65625 0)"/>
     <use xlink:href="#DejaVuSans-4c" transform="translate(1360.859375 0)"/>
     <use xlink:href="#DejaVuSans-52" transform="translate(1388.640625 0)"/>
     <use xlink:href="#DejaVuSans-51" transform="translate(1449.828125 0)"/>
    </g>
   </g>
   <g id="text_4">
    <!-- Valid-time / transaction-time separation -->
    <g transform="translate(761.091844 132.117347) scale(0.1 -0.1)">
     <defs>
      <path id="DejaVuSans-39" d="M 1831 0
L 50 4666
L 709 4666
L 2188 738
L 3669 4666
L 4325 4666
L 2547 0
L 1831 0
z
" transform="scale(0.015625)"/>
      <path id="DejaVuSans-10" d="M 313 2009
L 1997 2009
L 1997 1497
L 313 1497
L 313 2009
z
" transform="scale(0.015625)"/>
      <path id="DejaVuSans-12" d="M 1625 4666
L 2156 4666
L 531 -594
L 0 -594
L 1625 4666
z
" transform="scale(0.015625)"/>
     </defs>
     <use xlink:href="#DejaVuSans-39"/>
     <use xlink:href="#DejaVuSans-44" transform="translate(60.640625 0)"/>
     <use xlink:href="#DejaVuSans-4f" transform="translate(121.921875 0)"/>
     <use xlink:href="#DejaVuSans-4c" transform="translate(149.703125 0)"/>
     <use xlink:href="#DejaVuSans-47" transform="translate(177.484375 0)"/>
     <use xlink:href="#DejaVuSans-10" transform="translate(240.96875 0)"/>
     <use xlink:href="#DejaVuSans-57" transform="translate(277.046875 0)"/>
     <use xlink:href="#DejaVuSans-4c" transform="translate(316.25 0)"/>
     <use xlink:href="#DejaVuSans-50" transform="translate(344.03125 0)"/>
     <use xlink:href="#DejaVuSans-48" transform="translate(441.4375 0)"/>
     <use xlink:href="#DejaVuSans-3" transform="translate(502.96875 0)"/>
     <use xlink:href="#DejaVuSans-12" transform="translate(534.75 0)"/>
     <use xlink:href="#DejaVuSans-3" transform="translate(568.4375 0)"/>
     <use xlink:href="#DejaVuSans-57" transform="translate(600.21875 0)"/>
     <use xlink:href="#DejaVuSans-55" transform="translate(639.421875 0)"/>
     <use xlink:href="#DejaVuSans-44" transform="translate(680.53125 0)"/>
     <use xlink:href="#DejaVuSans-51" transform="translate(741.8125 0)"/>
     <use xlink:href="#DejaVuSans-56" transform="translate(805.1875 0)"/>
     <use xlink:href="#DejaVuSans-44" transform="translate(857.28125 0)"/>
     <use xlink:href="#DejaVuSans-46" transform="translate(918.5625 0)"/>
     <use xlink:href="#DejaVuSans-57" transform="translate(973.546875 0)"/>
     <use xlink:href="#DejaVuSans-4c" transform="translate(1012.75 0)"/>
     <use xlink:href="#DejaVuSans-52" transform="translate(1040.53125 0)"/>
     <use xlink:href="#DejaVuSans-51" transform="translate(1101.71875 0)"/>
     <use xlink:href="#DejaVuSans-10" transform="translate(1165.09375 0)"/>
     <use xlink:href="#DejaVuSans-57" transform="translate(1201.171875 0)"/>
     <use xlink:href="#DejaVuSans-4c" transform="translate(1240.375 0)"/>
     <use xlink:href="#DejaVuSans-50" transform="translate(1268.15625 0)"/>
     <use xlink:href="#DejaVuSans-48" transform="translate(1365.5625 0)"/>
     <use xlink:href="#DejaVuSans-3" transform="translate(1427.09375 0)"/>
     <use xlink:href="#DejaVuSans-56" transform="translate(1458.875 0)"/>
     <use xlink:href="#DejaVuSans-48" transform="translate(1510.96875 0)"/>
     <use xlink:href="#DejaVuSans-53" transform="translate(1572.5 0)"/>
     <use xlink:href="#DejaVuSans-44" transform="translate(1635.984375 0)"/>
     <use xlink:href="#DejaVuSans-55" transform="translate(1697.265625 0)"/>
     <use xlink:href="#DejaVuSans-44" transform="translate(1738.375 0)"/>
     <use xlink:href="#DejaVuSans-57" transform="translate(1799.65625 0)"/>
     <use xlink:href="#DejaVuSans-4c" transform="translate(1838.859375 0)"/>
     <use xlink:href="#DejaVuSans-52" transform="translate(1866.640625 0)"/>
     <use xlink:href="#DejaVuSans-51" transform="translate(1927.828125 0)"/>
    </g>
   </g>
   <g id="text_5">
    <!-- Candidate retrieval -->
    <g transform="translate(100.432812 244.549347) scale(0.1 -0.1)">
     <use xlink:href="#DejaVuSans-26"/>
     <use xlink:href="#DejaVuSans-44" transform="translate(69.828125 0)"/>
     <use xlink:href="#DejaVuSans-51" transform="translate(131.109375 0)"/>
     <use xlink:href="#DejaVuSans-47" transform="translate(194.484375 0)"/>
     <use xlink:href="#DejaVuSans-4c" transform="translate(257.96875 0)"/>
     <use xlink:href="#DejaVuSans-47" transform="translate(285.75 0)"/>
     <use xlink:href="#DejaVuSans-44" transform="translate(349.234375 0)"/>
     <use xlink:href="#DejaVuSans-57" transform="translate(410.515625 0)"/>
     <use xlink:href="#DejaVuSans-48" transform="translate(449.71875 0)"/>
     <use xlink:href="#DejaVuSans-3" transform="translate(511.25 0)"/>
     <use xlink:href="#DejaVuSans-55" transform="translate(543.03125 0)"/>
     <use xlink:href="#DejaVuSans-48" transform="translate(581.9375 0)"/>
     <use xlink:href="#DejaVuSans-57" transform="translate(643.46875 0)"/>
     <use xlink:href="#DejaVuSans-55" transform="translate(682.671875 0)"/>
     <use xlink:href="#DejaVuSans-4c" transform="translate(723.78125 0)"/>
     <use xlink:href="#DejaVuSans-48" transform="translate(751.5625 0)"/>
     <use xlink:href="#DejaVuSans-59" transform="translate(813.09375 0)"/>
     <use xlink:href="#DejaVuSans-44" transform="translate(872.28125 0)"/>
     <use xlink:href="#DejaVuSans-4f" transform="translate(933.5625 0)"/>
    </g>
   </g>
   <g id="text_6">
    <!-- Temporal precision scoring -->
    <g transform="translate(319.055094 244.549347) scale(0.1 -0.1)">
     <use xlink:href="#DejaVuSans-37"/>
     <use xlink:href="#DejaVuSans-48" transform="translate(44.09375 0)"/>
     <use xlink:href="#DejaVuSans-50" transform="translate(105.625 0)"/>
     <use xlink:href="#DejaVuSans-53" transform="translate(203.03125 0)"/>
     <use xlink:href="#DejaVuSans-52" transform="translate(266.515625 0)"/>
     <use xlink:href="#DejaVuSans-55" transform="translate(327.703125 0)"/>
     <use xlink:href="#DejaVuSans-44" transform="translate(368.8125 0)"/>
     <use xlink:href="#DejaVuSans-4f" transform="translate(430.09375 0)"/>
     <use xlink:href="#DejaVuSans-3" transform="translate(457.875 0)"/>
     <use xlink:href="#DejaVuSans-53" transform="translate(489.65625 0)"/>
     <use xlink:href="#DejaVuSans-55" transform="translate(553.140625 0)"/>
     <use xlink:href="#DejaVuSans-48" transform="translate(592.046875 0)"/>
     <use xlink:href="#DejaVuSans-46" transform="translate(653.578125 0)"/>
     <use xlink:href="#DejaVuSans-4c" transform="translate(708.5625 0)"/>
     <use xlink:href="#DejaVuSans-56" transform="translate(736.34375 0)"/>
     <use xlink:href="#DejaVuSans-4c" transform="translate(788.4375 0)"/>
     <use xlink:href="#DejaVuSans-52" transform="translate(816.21875 0)"/>
     <use xlink:href="#DejaVuSans-51" transform="translate(877.40625 0)"/>
     <use xlink:href="#DejaVuSans-3" transform="translate(940.78125 0)"/>
     <use xlink:href="#DejaVuSans-56" transform="translate(972.5625 0)"/>
     <use xlink:href="#DejaVuSans-46" transform="translate(1024.65625 0)"/>
     <use xlink:href="#DejaVuSans-52" transform="translate(1079.640625 0)"/>
     <use xlink:href="#DejaVuSans-55" transform="translate(1140.828125 0)"/>
     <use xlink:href="#DejaVuSans-4c" transform="translate(1181.9375 0)"/>
     <use xlink:href="#DejaVuSans-51" transform="translate(1209.71875 0)"/>
     <use xlink:href="#DejaVuSans-4a" transform="translate(1273.09375 0)"/>
    </g>
   </g>
   <g id="text_7">
    <!-- Temporal fusion -->
    <g transform="translate(583.634406 244.549347) scale(0.1 -0.1)">
     <defs>
      <path id="DejaVuSans-49" d="M 2375 4863
L 2375 4384
L 1825 4384
Q 1516 4384 1395 4259
Q 1275 4134 1275 3809
L 1275 3500
L 2222 3500
L 2222 3053
L 1275 3053
L 1275 0
L 697 0
L 697 3053
L 147 3053
L 147 3500
L 697 3500
L 697 3744
Q 697 4328 969 4595
Q 1241 4863 1831 4863
L 2375 4863
z
" transform="scale(0.015625)"/>
     </defs>
     <use xlink:href="#DejaVuSans-37"/>
     <use xlink:href="#DejaVuSans-48" transform="translate(44.09375 0)"/>
     <use xlink:href="#DejaVuSans-50" transform="translate(105.625 0)"/>
     <use xlink:href="#DejaVuSans-53" transform="translate(203.03125 0)"/>
     <use xlink:href="#DejaVuSans-52" transform="translate(266.515625 0)"/>
     <use xlink:href="#DejaVuSans-55" transform="translate(327.703125 0)"/>
     <use xlink:href="#DejaVuSans-44" transform="translate(368.8125 0)"/>
     <use xlink:href="#DejaVuSans-4f" transform="translate(430.09375 0)"/>
     <use xlink:href="#DejaVuSans-3" transform="translate(457.875 0)"/>
     <use xlink:href="#DejaVuSans-49" transform="translate(489.65625 0)"/>
     <use xlink:href="#DejaVuSans-58" transform="translate(524.859375 0)"/>
     <use xlink:href="#DejaVuSans-56" transform="translate(588.234375 0)"/>
     <use xlink:href="#DejaVuSans-4c" transform="translate(640.328125 0)"/>
     <use xlink:href="#DejaVuSans-52" transform="translate(668.109375 0)"/>
     <use xlink:href="#DejaVuSans-51" transform="translate(729.296875 0)"/>
    </g>
   </g>
   <g id="text_8">
    <!-- Forbidden-time suppression -->
    <g transform="translate(791.023094 244.549347) scale(0.1 -0.1)">
     <defs>
      <path id="DejaVuSans-29" d="M 628 4666
L 3309 4666
L 3309 4134
L 1259 4134
L 1259 2759
L 3109 2759
L 3109 2228
L 1259 2228
L 1259 0
L 628 0
L 628 4666
z
" transform="scale(0.015625)"/>
      <path id="DejaVuSans-45" d="M 3116 1747
Q 3116 2381 2855 2742
Q 2594 3103 2138 3103
Q 1681 3103 1420 2742
Q 1159 2381 1159 1747
Q 1159 1113 1420 752
Q 1681 391 2138 391
Q 2594 391 2855 752
Q 3116 1113 3116 1747
z
M 1159 2969
Q 1341 3281 1617 3432
Q 1894 3584 2278 3584
Q 2916 3584 3314 3078
Q 3713 2572 3713 1747
Q 3713 922 3314 415
Q 2916 -91 2278 -91
Q 1894 -91 1617 61
Q 1341 213 1159 525
L 1159 0
L 581 0
L 581 4863
L 1159 4863
L 1159 2969
z
" transform="scale(0.015625)"/>
     </defs>
     <use xlink:href="#DejaVuSans-29"/>
     <use xlink:href="#DejaVuSans-52" transform="translate(53.953125 0)"/>
     <use xlink:href="#DejaVuSans-55" transform="translate(115.140625 0)"/>
     <use xlink:href="#DejaVuSans-45" transform="translate(156.25 0)"/>
     <use xlink:href="#DejaVuSans-4c" transform="translate(219.734375 0)"/>
     <use xlink:href="#DejaVuSans-47" transform="translate(247.515625 0)"/>
     <use xlink:href="#DejaVuSans-47" transform="translate(311 0)"/>
     <use xlink:href="#DejaVuSans-48" transform="translate(374.484375 0)"/>
     <use xlink:href="#DejaVuSans-51" transform="translate(436.015625 0)"/>
     <use xlink:href="#DejaVuSans-10" transform="translate(499.390625 0)"/>
     <use xlink:href="#DejaVuSans-57" transform="translate(535.46875 0)"/>
     <use xlink:href="#DejaVuSans-4c" transform="translate(574.671875 0)"/>
     <use xlink:href="#DejaVuSans-50" transform="translate(602.453125 0)"/>
     <use xlink:href="#DejaVuSans-48" transform="translate(699.859375 0)"/>
     <use xlink:href="#DejaVuSans-3" transform="translate(761.390625 0)"/>
     <use xlink:href="#DejaVuSans-56" transform="translate(793.171875 0)"/>
     <use xlink:href="#DejaVuSans-58" transform="translate(845.265625 0)"/>
     <use xlink:href="#DejaVuSans-53" transform="translate(908.640625 0)"/>
     <use xlink:href="#DejaVuSans-53" transform="translate(972.125 0)"/>
     <use xlink:href="#DejaVuSans-55" transform="translate(1035.609375 0)"/>
     <use xlink:href="#DejaVuSans-48" transform="translate(1074.515625 0)"/>
     <use xlink:href="#DejaVuSans-56" transform="translate(1136.046875 0)"/>
     <use xlink:href="#DejaVuSans-56" transform="translate(1188.140625 0)"/>
     <use xlink:href="#DejaVuSans-4c" transform="translate(1240.234375 0)"/>
     <use xlink:href="#DejaVuSans-52" transform="translate(1268.015625 0)"/>
     <use xlink:href="#DejaVuSans-51" transform="translate(1329.203125 0)"/>
    </g>
   </g>
   <g id="text_9">
    <!-- Source/metric-aware adjustment -->
    <g transform="translate(66.472656 356.981347) scale(0.1 -0.1)">
     <defs>
      <path id="DejaVuSans-36" d="M 3425 4513
L 3425 3897
Q 3066 4069 2747 4153
Q 2428 4238 2131 4238
Q 1616 4238 1336 4038
Q 1056 3838 1056 3469
Q 1056 3159 1242 3001
Q 1428 2844 1947 2747
L 2328 2669
Q 3034 2534 3370 2195
Q 3706 1856 3706 1288
Q 3706 609 3251 259
Q 2797 -91 1919 -91
Q 1588 -91 1214 -16
Q 841 59 441 206
L 441 856
Q 825 641 1194 531
Q 1563 422 1919 422
Q 2459 422 2753 634
Q 3047 847 3047 1241
Q 3047 1584 2836 1778
Q 2625 1972 2144 2069
L 1759 2144
Q 1053 2284 737 2584
Q 422 2884 422 3419
Q 422 4038 858 4394
Q 1294 4750 2059 4750
Q 2388 4750 2728 4690
Q 3069 4631 3425 4513
z
" transform="scale(0.015625)"/>
      <path id="DejaVuSans-4d" d="M 603 3500
L 1178 3500
L 1178 -63
Q 1178 -731 923 -1031
Q 669 -1331 103 -1331
L -116 -1331
L -116 -844
L 38 -844
Q 366 -844 484 -692
Q 603 -541 603 -63
L 603 3500
z
M 603 4863
L 1178 4863
L 1178 4134
L 603 4134
L 603 4863
z
" transform="scale(0.015625)"/>
     </defs>
     <use xlink:href="#DejaVuSans-36"/>
     <use xlink:href="#DejaVuSans-52" transform="translate(63.484375 0)"/>
     <use xlink:href="#DejaVuSans-58" transform="translate(124.671875 0)"/>
     <use xlink:href="#DejaVuSans-55" transform="translate(188.046875 0)"/>
     <use xlink:href="#DejaVuSans-46" transform="translate(226.953125 0)"/>
     <use xlink:href="#DejaVuSans-48" transform="translate(281.9375 0)"/>
     <use xlink:href="#DejaVuSans-12" transform="translate(343.46875 0)"/>
     <use xlink:href="#DejaVuSans-50" transform="translate(377.15625 0)"/>
     <use xlink:href="#DejaVuSans-48" transform="translate(474.5625 0)"/>
     <use xlink:href="#DejaVuSans-57" transform="translate(536.09375 0)"/>
     <use xlink:href="#DejaVuSans-55" transform="translate(575.296875 0)"/>
     <use xlink:href="#DejaVuSans-4c" transform="translate(616.40625 0)"/>
     <use xlink:href="#DejaVuSans-46" transform="translate(644.1875 0)"/>
     <use xlink:href="#DejaVuSans-10" transform="translate(699.171875 0)"/>
     <use xlink:href="#DejaVuSans-44" transform="translate(735.25 0)"/>
     <use xlink:href="#DejaVuSans-5a" transform="translate(796.53125 0)"/>
     <use xlink:href="#DejaVuSans-44" transform="translate(878.3125 0)"/>
     <use xlink:href="#DejaVuSans-55" transform="translate(939.59375 0)"/>
     <use xlink:href="#DejaVuSans-48" transform="translate(978.5 0)"/>
     <use xlink:href="#DejaVuSans-3" transform="translate(1040.03125 0)"/>
     <use xlink:href="#DejaVuSans-44" transform="translate(1071.8125 0)"/>
     <use xlink:href="#DejaVuSans-47" transform="translate(1133.09375 0)"/>
     <use xlink:href="#DejaVuSans-4d" transform="translate(1196.578125 0)"/>
     <use xlink:href="#DejaVuSans-58" transform="translate(1224.359375 0)"/>
     <use xlink:href="#DejaVuSans-56" transform="translate(1287.734375 0)"/>
     <use xlink:href="#DejaVuSans-57" transform="translate(1339.828125 0)"/>
     <use xlink:href="#DejaVuSans-50" transform="translate(1379.03125 0)"/>
     <use xlink:href="#DejaVuSans-48" transform="translate(1476.4375 0)"/>
     <use xlink:href="#DejaVuSans-51" transform="translate(1537.96875 0)"/>
     <use xlink:href="#DejaVuSans-57" transform="translate(1601.34375 0)"/>
    </g>
   </g>
   <g id="text_10">
    <!-- Slot-aware finalization -->
    <g transform="translate(330.243375 356.981347) scale(0.1 -0.1)">
     <defs>
      <path id="DejaVuSans-13af" d="M 3431 3500
L 3431 0
L 2853 0
L 2853 3053
L 1275 3053
L 1275 0
L 697 0
L 697 3053
L 147 3053
L 147 3500
L 697 3500
L 697 3744
Q 697 4316 967 4589
Q 1238 4863 1797 4863
L 2375 4863
L 2375 4384
L 1825 4384
Q 1516 4384 1395 4259
Q 1275 4134 1275 3809
L 1275 3500
L 3431 3500
z
M 2853 4856
L 3431 4856
L 3431 4128
L 2853 4128
L 2853 4856
z
" transform="scale(0.015625)"/>
      <path id="DejaVuSans-5d" d="M 353 3500
L 3084 3500
L 3084 2975
L 922 459
L 3084 459
L 3084 0
L 275 0
L 275 525
L 2438 3041
L 353 3041
L 353 3500
z
" transform="scale(0.015625)"/>
     </defs>
     <use xlink:href="#DejaVuSans-36"/>
     <use xlink:href="#DejaVuSans-4f" transform="translate(63.484375 0)"/>
     <use xlink:href="#DejaVuSans-52" transform="translate(91.265625 0)"/>
     <use xlink:href="#DejaVuSans-57" transform="translate(152.453125 0)"/>
     <use xlink:href="#DejaVuSans-10" transform="translate(191.65625 0)"/>
     <use xlink:href="#DejaVuSans-44" transform="translate(227.734375 0)"/>
     <use xlink:href="#DejaVuSans-5a" transform="translate(289.015625 0)"/>
     <use xlink:href="#DejaVuSans-44" transform="translate(370.796875 0)"/>
     <use xlink:href="#DejaVuSans-55" transform="translate(432.078125 0)"/>
     <use xlink:href="#DejaVuSans-48" transform="translate(470.984375 0)"/>
     <use xlink:href="#DejaVuSans-3" transform="translate(532.515625 0)"/>
     <use xlink:href="#DejaVuSans-13af" transform="translate(564.296875 0)"/>
     <use xlink:href="#DejaVuSans-51" transform="translate(627.28125 0)"/>
     <use xlink:href="#DejaVuSans-44" transform="translate(690.65625 0)"/>
     <use xlink:href="#DejaVuSans-4f" transform="translate(751.9375 0)"/>
     <use xlink:href="#DejaVuSans-4c" transform="translate(779.71875 0)"/>
     <use xlink:href="#DejaVuSans-5d" transform="translate(807.5 0)"/>
     <use xlink:href="#DejaVuSans-44" transform="translate(859.984375 0)"/>
     <use xlink:href="#DejaVuSans-57" transform="translate(921.265625 0)"/>
     <use xlink:href="#DejaVuSans-4c" transform="translate(960.46875 0)"/>
     <use xlink:href="#DejaVuSans-52" transform="translate(988.25 0)"/>
     <use xlink:href="#DejaVuSans-51" transform="translate(1049.4375 0)"/>
    </g>
   </g>
   <g id="text_11">
    <!-- ChronoSanity conflict guard -->
    <g transform="translate(553.707063 356.981347) scale(0.1 -0.1)">
     <defs>
      <path id="DejaVuSans-5c" d="M 2059 -325
Q 1816 -950 1584 -1140
Q 1353 -1331 966 -1331
L 506 -1331
L 506 -850
L 844 -850
Q 1081 -850 1212 -737
Q 1344 -625 1503 -206
L 1606 56
L 191 3500
L 800 3500
L 1894 763
L 2988 3500
L 3597 3500
L 2059 -325
z
" transform="scale(0.015625)"/>
      <path id="DejaVuSans-13b0" d="M 1831 4863
L 3431 4863
L 3431 0
L 2853 0
L 2853 4384
L 1825 4384
Q 1516 4384 1395 4259
Q 1275 4134 1275 3809
L 1275 3500
L 2222 3500
L 2222 3053
L 1275 3053
L 1275 0
L 697 0
L 697 3053
L 147 3053
L 147 3500
L 697 3500
L 697 3744
Q 697 4328 969 4595
Q 1241 4863 1831 4863
z
" transform="scale(0.015625)"/>
     </defs>
     <use xlink:href="#DejaVuSans-26"/>
     <use xlink:href="#DejaVuSans-4b" transform="translate(69.828125 0)"/>
     <use xlink:href="#DejaVuSans-55" transform="translate(133.203125 0)"/>
     <use xlink:href="#DejaVuSans-52" transform="translate(172.109375 0)"/>
     <use xlink:href="#DejaVuSans-51" transform="translate(233.296875 0)"/>
     <use xlink:href="#DejaVuSans-52" transform="translate(296.671875 0)"/>
     <use xlink:href="#DejaVuSans-36" transform="translate(357.859375 0)"/>
     <use xlink:href="#DejaVuSans-44" transform="translate(421.34375 0)"/>
     <use xlink:href="#DejaVuSans-51" transform="translate(482.625 0)"/>
     <use xlink:href="#DejaVuSans-4c" transform="translate(546 0)"/>
     <use xlink:href="#DejaVuSans-57" transform="translate(573.78125 0)"/>
     <use xlink:href="#DejaVuSans-5c" transform="translate(612.984375 0)"/>
     <use xlink:href="#DejaVuSans-3" transform="translate(672.171875 0)"/>
     <use xlink:href="#DejaVuSans-46" transform="translate(703.953125 0)"/>
     <use xlink:href="#DejaVuSans-52" transform="translate(758.9375 0)"/>
     <use xlink:href="#DejaVuSans-51" transform="translate(820.125 0)"/>
     <use xlink:href="#DejaVuSans-13b0" transform="translate(883.5 0)"/>
     <use xlink:href="#DejaVuSans-4c" transform="translate(946.484375 0)"/>
     <use xlink:href="#DejaVuSans-46" transform="translate(974.265625 0)"/>
     <use xlink:href="#DejaVuSans-57" transform="translate(1029.25 0)"/>
     <use xlink:href="#DejaVuSans-3" transform="translate(1068.453125 0)"/>
     <use xlink:href="#DejaVuSans-4a" transform="translate(1100.234375 0)"/>
     <use xlink:href="#DejaVuSans-58" transform="translate(1163.71875 0)"/>
     <use xlink:href="#DejaVuSans-44" transform="translate(1227.09375 0)"/>
     <use xlink:href="#DejaVuSans-55" transform="translate(1288.375 0)"/>
     <use xlink:href="#DejaVuSans-47" transform="translate(1327.734375 0)"/>
    </g>
   </g>
   <g id="text_12">
    <!-- Attribution cards / final evidence -->
    <g transform="translate(778.991844 356.981347) scale(0.1 -0.1)">
     <defs>
      <path id="DejaVuSans-24" d="M 2188 4044
L 1331 1722
L 3047 1722
L 2188 4044
z
M 1831 4666
L 2547 4666
L 4325 0
L 3669 0
L 3244 1197
L 1141 1197
L 716 0
L 50 0
L 1831 4666
z
" transform="scale(0.015625)"/>
     </defs>
     <use xlink:href="#DejaVuSans-24"/>
     <use xlink:href="#DejaVuSans-57" transform="translate(66.65625 0)"/>
     <use xlink:href="#DejaVuSans-57" transform="translate(105.859375 0)"/>
     <use xlink:href="#DejaVuSans-55" transform="translate(145.0625 0)"/>
     <use xlink:href="#DejaVuSans-4c" transform="translate(186.171875 0)"/>
     <use xlink:href="#DejaVuSans-45" transform="translate(213.953125 0)"/>
     <use xlink:href="#DejaVuSans-58" transform="translate(277.4375 0)"/>
     <use xlink:href="#DejaVuSans-57" transform="translate(340.8125 0)"/>
     <use xlink:href="#DejaVuSans-4c" transform="translate(380.015625 0)"/>
     <use xlink:href="#DejaVuSans-52" transform="translate(407.796875 0)"/>
     <use xlink:href="#DejaVuSans-51" transform="translate(468.984375 0)"/>
     <use xlink:href="#DejaVuSans-3" transform="translate(532.359375 0)"/>
     <use xlink:href="#DejaVuSans-46" transform="translate(564.140625 0)"/>
     <use xlink:href="#DejaVuSans-44" transform="translate(619.125 0)"/>
     <use xlink:href="#DejaVuSans-55" transform="translate(680.40625 0)"/>
     <use xlink:href="#DejaVuSans-47" transform="translate(719.765625 0)"/>
     <use xlink:href="#DejaVuSans-56" transform="translate(783.25 0)"/>
     <use xlink:href="#DejaVuSans-3" transform="translate(835.34375 0)"/>
     <use xlink:href="#DejaVuSans-12" transform="translate(867.125 0)"/>
     <use xlink:href="#DejaVuSans-3" transform="translate(900.8125 0)"/>
     <use xlink:href="#DejaVuSans-13af" transform="translate(932.59375 0)"/>
     <use xlink:href="#DejaVuSans-51" transform="translate(995.578125 0)"/>
     <use xlink:href="#DejaVuSans-44" transform="translate(1058.953125 0)"/>
     <use xlink:href="#DejaVuSans-4f" transform="translate(1120.234375 0)"/>
     <use xlink:href="#DejaVuSans-3" transform="translate(1148.015625 0)"/>
     <use xlink:href="#DejaVuSans-48" transform="translate(1179.796875 0)"/>
     <use xlink:href="#DejaVuSans-59" transform="translate(1241.328125 0)"/>
     <use xlink:href="#DejaVuSans-4c" transform="translate(1300.515625 0)"/>
     <use xlink:href="#DejaVuSans-47" transform="translate(1328.296875 0)"/>
     <use xlink:href="#DejaVuSans-48" transform="translate(1391.78125 0)"/>
     <use xlink:href="#DejaVuSans-51" transform="translate(1453.3125 0)"/>
     <use xlink:href="#DejaVuSans-46" transform="translate(1516.6875 0)"/>
     <use xlink:href="#DejaVuSans-48" transform="translate(1571.671875 0)"/>
    </g>
   </g>
   <g id="text_13">
    <!-- Answer synthesizer -->
    <g transform="translate(99.807812 469.413347) scale(0.1 -0.1)">
     <use xlink:href="#DejaVuSans-24"/>
     <use xlink:href="#DejaVuSans-51" transform="translate(68.40625 0)"/>
     <use xlink:href="#DejaVuSans-56" transform="translate(131.78125 0)"/>
     <use xlink:href="#DejaVuSans-5a" transform="translate(183.875 0)"/>
     <use xlink:href="#DejaVuSans-48" transform="translate(265.65625 0)"/>
     <use xlink:href="#DejaVuSans-55" transform="translate(327.1875 0)"/>
     <use xlink:href="#DejaVuSans-3" transform="translate(368.296875 0)"/>
     <use xlink:href="#DejaVuSans-56" transform="translate(400.078125 0)"/>
     <use xlink:href="#DejaVuSans-5c" transform="translate(452.171875 0)"/>
     <use xlink:href="#DejaVuSans-51" transform="translate(511.359375 0)"/>
     <use xlink:href="#DejaVuSans-57" transform="translate(574.734375 0)"/>
     <use xlink:href="#DejaVuSans-4b" transform="translate(613.9375 0)"/>
     <use xlink:href="#DejaVuSans-48" transform="translate(677.3125 0)"/>
     <use xlink:href="#DejaVuSans-56" transform="translate(738.84375 0)"/>
     <use xlink:href="#DejaVuSans-4c" transform="translate(790.9375 0)"/>
     <use xlink:href="#DejaVuSans-5d" transform="translate(818.71875 0)"/>
     <use xlink:href="#DejaVuSans-48" transform="translate(871.203125 0)"/>
     <use xlink:href="#DejaVuSans-55" transform="translate(932.734375 0)"/>
    </g>
   </g>
   <g id="text_14">
    <!-- Answer-contract validation -->
    <g transform="translate(319.012125 469.413347) scale(0.1 -0.1)">
     <use xlink:href="#DejaVuSans-24"/>
     <use xlink:href="#DejaVuSans-51" transform="translate(68.40625 0)"/>
     <use xlink:href="#DejaVuSans-56" transform="translate(131.78125 0)"/>
     <use xlink:href="#DejaVuSans-5a" transform="translate(183.875 0)"/>
     <use xlink:href="#DejaVuSans-48" transform="translate(265.65625 0)"/>
     <use xlink:href="#DejaVuSans-55" transform="translate(327.1875 0)"/>
     <use xlink:href="#DejaVuSans-10" transform="translate(361.90625 0)"/>
     <use xlink:href="#DejaVuSans-46" transform="translate(397.984375 0)"/>
     <use xlink:href="#DejaVuSans-52" transform="translate(452.96875 0)"/>
     <use xlink:href="#DejaVuSans-51" transform="translate(514.15625 0)"/>
     <use xlink:href="#DejaVuSans-57" transform="translate(577.53125 0)"/>
     <use xlink:href="#DejaVuSans-55" transform="translate(616.734375 0)"/>
     <use xlink:href="#DejaVuSans-44" transform="translate(657.84375 0)"/>
     <use xlink:href="#DejaVuSans-46" transform="translate(719.125 0)"/>
     <use xlink:href="#DejaVuSans-57" transform="translate(774.109375 0)"/>
     <use xlink:href="#DejaVuSans-3" transform="translate(813.3125 0)"/>
     <use xlink:href="#DejaVuSans-59" transform="translate(845.09375 0)"/>
     <use xlink:href="#DejaVuSans-44" transform="translate(904.28125 0)"/>
     <use xlink:href="#DejaVuSans-4f" transform="translate(965.5625 0)"/>
     <use xlink:href="#DejaVuSans-4c" transform="translate(993.34375 0)"/>
     <use xlink:href="#DejaVuSans-47" transform="translate(1021.125 0)"/>
     <use xlink:href="#DejaVuSans-44" transform="translate(1084.609375 0)"/>
     <use xlink:href="#DejaVuSans-57" transform="translate(1145.890625 0)"/>
     <use xlink:href="#DejaVuSans-4c" transform="translate(1185.09375 0)"/>
     <use xlink:href="#DejaVuSans-52" transform="translate(1212.875 0)"/>
     <use xlink:href="#DejaVuSans-51" transform="translate(1274.0625 0)"/>
    </g>
   </g>
   <g id="text_15">
    <!-- Layer 2A retrieval-only scoring -->
    <g transform="translate(806.36 566.385947) scale(0.1 -0.1)">
     <defs>
      <path id="DejaVuSans-2f" d="M 628 4666
L 1259 4666
L 1259 531
L 3531 531
L 3531 0
L 628 0
L 628 4666
z
" transform="scale(0.015625)"/>
      <path id="DejaVuSans-15" d="M 1228 531
L 3431 531
L 3431 0
L 469 0
L 469 531
Q 828 903 1448 1529
Q 2069 2156 2228 2338
Q 2531 2678 2651 2914
Q 2772 3150 2772 3378
Q 2772 3750 2511 3984
Q 2250 4219 1831 4219
Q 1534 4219 1204 4116
Q 875 4013 500 3803
L 500 4441
Q 881 4594 1212 4672
Q 1544 4750 1819 4750
Q 2544 4750 2975 4387
Q 3406 4025 3406 3419
Q 3406 3131 3298 2873
Q 3191 2616 2906 2266
Q 2828 2175 2409 1742
Q 1991 1309 1228 531
z
" transform="scale(0.015625)"/>
     </defs>
     <use xlink:href="#DejaVuSans-2f"/>
     <use xlink:href="#DejaVuSans-44" transform="translate(55.71875 0)"/>
     <use xlink:href="#DejaVuSans-5c" transform="translate(117 0)"/>
     <use xlink:href="#DejaVuSans-48" transform="translate(176.1875 0)"/>
     <use xlink:href="#DejaVuSans-55" transform="translate(237.71875 0)"/>
     <use xlink:href="#DejaVuSans-3" transform="translate(278.828125 0)"/>
     <use xlink:href="#DejaVuSans-15" transform="translate(310.609375 0)"/>
     <use xlink:href="#DejaVuSans-24" transform="translate(374.234375 0)"/>
     <use xlink:href="#DejaVuSans-3" transform="translate(442.640625 0)"/>
     <use xlink:href="#DejaVuSans-55" transform="translate(474.421875 0)"/>
     <use xlink:href="#DejaVuSans-48" transform="translate(513.328125 0)"/>
     <use xlink:href="#DejaVuSans-57" transform="translate(574.859375 0)"/>
     <use xlink:href="#DejaVuSans-55" transform="translate(614.0625 0)"/>
     <use xlink:href="#DejaVuSans-4c" transform="translate(655.171875 0)"/>
     <use xlink:href="#DejaVuSans-48" transform="translate(682.953125 0)"/>
     <use xlink:href="#DejaVuSans-59" transform="translate(744.484375 0)"/>
     <use xlink:href="#DejaVuSans-44" transform="translate(803.671875 0)"/>
     <use xlink:href="#DejaVuSans-4f" transform="translate(864.953125 0)"/>
     <use xlink:href="#DejaVuSans-10" transform="translate(892.734375 0)"/>
     <use xlink:href="#DejaVuSans-52" transform="translate(930.671875 0)"/>
     <use xlink:href="#DejaVuSans-51" transform="translate(991.859375 0)"/>
     <use xlink:href="#DejaVuSans-4f" transform="translate(1055.234375 0)"/>
     <use xlink:href="#DejaVuSans-5c" transform="translate(1083.015625 0)"/>
     <use xlink:href="#DejaVuSans-3" transform="translate(1142.203125 0)"/>
     <use xlink:href="#DejaVuSans-56" transform="translate(1173.984375 0)"/>
     <use xlink:href="#DejaVuSans-46" transform="translate(1226.078125 0)"/>
     <use xlink:href="#DejaVuSans-52" transform="translate(1281.0625 0)"/>
     <use xlink:href="#DejaVuSans-55" transform="translate(1342.25 0)"/>
     <use xlink:href="#DejaVuSans-4c" transform="translate(1383.359375 0)"/>
     <use xlink:href="#DejaVuSans-51" transform="translate(1411.140625 0)"/>
     <use xlink:href="#DejaVuSans-4a" transform="translate(1474.515625 0)"/>
    </g>
   </g>
   <g id="text_16">
    <!-- Retrieval-only evaluation branches from final evidence before answer synthesis. -->
    <g transform="translate(41.112 575.0311) scale(0.11 -0.11)">
     <defs>
      <path id="DejaVuSans-11" d="M 684 794
L 1344 794
L 1344 0
L 684 0
L 684 794
z
" transform="scale(0.015625)"/>
     </defs>
     <use xlink:href="#DejaVuSans-35"/>
     <use xlink:href="#DejaVuSans-48" transform="translate(65 0)"/>
     <use xlink:href="#DejaVuSans-57" transform="translate(126.53125 0)"/>
     <use xlink:href="#DejaVuSans-55" transform="translate(165.734375 0)"/>
     <use xlink:href="#DejaVuSans-4c" transform="translate(206.84375 0)"/>
     <use xlink:href="#DejaVuSans-48" transform="translate(234.625 0)"/>
     <use xlink:href="#DejaVuSans-59" transform="translate(296.15625 0)"/>
     <use xlink:href="#DejaVuSans-44" transform="translate(355.34375 0)"/>
     <use xlink:href="#DejaVuSans-4f" transform="translate(416.625 0)"/>
     <use xlink:href="#DejaVuSans-10" transform="translate(444.40625 0)"/>
     <use xlink:href="#DejaVuSans-52" transform="translate(482.34375 0)"/>
     <use xlink:href="#DejaVuSans-51" transform="translate(543.53125 0)"/>
     <use xlink:href="#DejaVuSans-4f" transform="translate(606.90625 0)"/>
     <use xlink:href="#DejaVuSans-5c" transform="translate(634.6875 0)"/>
     <use xlink:href="#DejaVuSans-3" transform="translate(693.875 0)"/>
     <use xlink:href="#DejaVuSans-48" transform="translate(725.65625 0)"/>
     <use xlink:href="#DejaVuSans-59" transform="translate(787.1875 0)"/>
     <use xlink:href="#DejaVuSans-44" transform="translate(846.375 0)"/>
     <use xlink:href="#DejaVuSans-4f" transform="translate(907.65625 0)"/>
     <use xlink:href="#DejaVuSans-58" transform="translate(935.4375 0)"/>
     <use xlink:href="#DejaVuSans-44" transform="translate(998.8125 0)"/>
     <use xlink:href="#DejaVuSans-57" transform="translate(1060.09375 0)"/>
     <use xlink:href="#DejaVuSans-4c" transform="translate(1099.296875 0)"/>
     <use xlink:href="#DejaVuSans-52" transform="translate(1127.078125 0)"/>
     <use xlink:href="#DejaVuSans-51" transform="translate(1188.265625 0)"/>
     <use xlink:href="#DejaVuSans-3" transform="translate(1251.640625 0)"/>
     <use xlink:href="#DejaVuSans-45" transform="translate(1283.421875 0)"/>
     <use xlink:href="#DejaVuSans-55" transform="translate(1346.90625 0)"/>
     <use xlink:href="#DejaVuSans-44" transform="translate(1388.015625 0)"/>
     <use xlink:href="#DejaVuSans-51" transform="translate(1449.296875 0)"/>
     <use xlink:href="#DejaVuSans-46" transform="translate(1512.671875 0)"/>
     <use xlink:href="#DejaVuSans-4b" transform="translate(1567.65625 0)"/>
     <use xlink:href="#DejaVuSans-48" transform="translate(1631.03125 0)"/>
     <use xlink:href="#DejaVuSans-56" transform="translate(1692.5625 0)"/>
     <use xlink:href="#DejaVuSans-3" transform="translate(1744.65625 0)"/>
     <use xlink:href="#DejaVuSans-49" transform="translate(1776.4375 0)"/>
     <use xlink:href="#DejaVuSans-55" transform="translate(1811.640625 0)"/>
     <use xlink:href="#DejaVuSans-52" transform="translate(1850.546875 0)"/>
     <use xlink:href="#DejaVuSans-50" transform="translate(1911.734375 0)"/>
     <use xlink:href="#DejaVuSans-3" transform="translate(2009.140625 0)"/>
     <use xlink:href="#DejaVuSans-13af" transform="translate(2040.921875 0)"/>
     <use xlink:href="#DejaVuSans-51" transform="translate(2103.90625 0)"/>
     <use xlink:href="#DejaVuSans-44" transform="translate(2167.28125 0)"/>
     <use xlink:href="#DejaVuSans-4f" transform="translate(2228.5625 0)"/>
     <use xlink:href="#DejaVuSans-3" transform="translate(2256.34375 0)"/>
     <use xlink:href="#DejaVuSans-48" transform="translate(2288.125 0)"/>
     <use xlink:href="#DejaVuSans-59" transform="translate(2349.65625 0)"/>
     <use xlink:href="#DejaVuSans-4c" transform="translate(2408.84375 0)"/>
     <use xlink:href="#DejaVuSans-47" transform="translate(2436.625 0)"/>
     <use xlink:href="#DejaVuSans-48" transform="translate(2500.109375 0)"/>
     <use xlink:href="#DejaVuSans-51" transform="translate(2561.640625 0)"/>
     <use xlink:href="#DejaVuSans-46" transform="translate(2625.015625 0)"/>
     <use xlink:href="#DejaVuSans-48" transform="translate(2680 0)"/>
     <use xlink:href="#DejaVuSans-3" transform="translate(2741.53125 0)"/>
     <use xlink:href="#DejaVuSans-45" transform="translate(2773.3125 0)"/>
     <use xlink:href="#DejaVuSans-48" transform="translate(2836.796875 0)"/>
     <use xlink:href="#DejaVuSans-49" transform="translate(2898.328125 0)"/>
     <use xlink:href="#DejaVuSans-52" transform="translate(2933.53125 0)"/>
     <use xlink:href="#DejaVuSans-55" transform="translate(2994.71875 0)"/>
     <use xlink:href="#DejaVuSans-48" transform="translate(3033.625 0)"/>
     <use xlink:href="#DejaVuSans-3" transform="translate(3095.15625 0)"/>
     <use xlink:href="#DejaVuSans-44" transform="translate(3126.9375 0)"/>
     <use xlink:href="#DejaVuSans-51" transform="translate(3188.21875 0)"/>
     <use xlink:href="#DejaVuSans-56" transform="translate(3251.59375 0)"/>
     <use xlink:href="#DejaVuSans-5a" transform="translate(3303.6875 0)"/>
     <use xlink:href="#DejaVuSans-48" transform="translate(3385.46875 0)"/>
     <use xlink:href="#DejaVuSans-55" transform="translate(3447 0)"/>
     <use xlink:href="#DejaVuSans-3" transform="translate(3488.109375 0)"/>
     <use xlink:href="#DejaVuSans-56" transform="translate(3519.890625 0)"/>
     <use xlink:href="#DejaVuSans-5c" transform="translate(3571.984375 0)"/>
     <use xlink:href="#DejaVuSans-51" transform="translate(3631.171875 0)"/>
     <use xlink:href="#DejaVuSans-57" transform="translate(3694.546875 0)"/>
     <use xlink:href="#DejaVuSans-4b" transform="translate(3733.75 0)"/>
     <use xlink:href="#DejaVuSans-48" transform="translate(3797.125 0)"/>
     <use xlink:href="#DejaVuSans-56" transform="translate(3858.65625 0)"/>
     <use xlink:href="#DejaVuSans-4c" transform="translate(3910.75 0)"/>
     <use xlink:href="#DejaVuSans-56" transform="translate(3938.53125 0)"/>
     <use xlink:href="#DejaVuSans-11" transform="translate(3990.625 0)"/>
    </g>
   </g>
   <g id="text_17">
    <!-- Figure 2. ChronoRAG architecture -->
    <g transform="translate(438.915 19.3575) scale(0.16 -0.16)">
     <defs>
      <path id="DejaVuSans-2a" d="M 3809 666
L 3809 1919
L 2778 1919
L 2778 2438
L 4434 2438
L 4434 434
Q 4069 175 3628 42
Q 3188 -91 2688 -91
Q 1594 -91 976 548
Q 359 1188 359 2328
Q 359 3472 976 4111
Q 1594 4750 2688 4750
Q 3144 4750 3555 4637
Q 3966 4525 4313 4306
L 4313 3634
Q 3963 3931 3569 4081
Q 3175 4231 2741 4231
Q 1884 4231 1454 3753
Q 1025 3275 1025 2328
Q 1025 1384 1454 906
Q 1884 428 2741 428
Q 3075 428 3337 486
Q 3600 544 3809 666
z
" transform="scale(0.015625)"/>
     </defs>
     <use xlink:href="#DejaVuSans-29"/>
     <use xlink:href="#DejaVuSans-4c" transform="translate(50.234375 0)"/>
     <use xlink:href="#DejaVuSans-4a" transform="translate(78.015625 0)"/>
     <use xlink:href="#DejaVuSans-58" transform="translate(141.5 0)"/>
     <use xlink:href="#DejaVuSans-55" transform="translate(204.875 0)"/>
     <use xlink:href="#DejaVuSans-48" transform="translate(243.78125 0)"/>
     <use xlink:href="#DejaVuSans-3" transform="translate(305.3125 0)"/>
     <use xlink:href="#DejaVuSans-15" transform="translate(337.09375 0)"/>
     <use xlink:href="#DejaVuSans-11" transform="translate(400.71875 0)"/>
     <use xlink:href="#DejaVuSans-3" transform="translate(432.5 0)"/>
     <use xlink:href="#DejaVuSans-26" transform="translate(464.28125 0)"/>
     <use xlink:href="#DejaVuSans-4b" transform="translate(534.109375 0)"/>
     <use xlink:href="#DejaVuSans-55" transform="translate(597.484375 0)"/>
     <use xlink:href="#DejaVuSans-52" transform="translate(636.390625 0)"/>
     <use xlink:href="#DejaVuSans-51" transform="translate(697.578125 0)"/>
     <use xlink:href="#DejaVuSans-52" transform="translate(760.953125 0)"/>
     <use xlink:href="#DejaVuSans-35" transform="translate(822.140625 0)"/>
     <use xlink:href="#DejaVuSans-24" transform="translate(887.578125 0)"/>
     <use xlink:href="#DejaVuSans-2a" transform="translate(954.234375 0)"/>
     <use xlink:href="#DejaVuSans-3" transform="translate(1031.71875 0)"/>
     <use xlink:href="#DejaVuSans-44" transform="translate(1063.5 0)"/>
     <use xlink:href="#DejaVuSans-55" transform="translate(1124.78125 0)"/>
     <use xlink:href="#DejaVuSans-46" transform="translate(1163.6875 0)"/>
     <use xlink:href="#DejaVuSans-4b" transform="translate(1218.671875 0)"/>
     <use xlink:href="#DejaVuSans-4c" transform="translate(1282.046875 0)"/>
     <use xlink:href="#DejaVuSans-57" transform="translate(1309.828125 0)"/>
     <use xlink:href="#DejaVuSans-48" transform="translate(1349.03125 0)"/>
     <use xlink:href="#DejaVuSans-46" transform="translate(1410.5625 0)"/>
     <use xlink:href="#DejaVuSans-57" transform="translate(1465.546875 0)"/>
     <use xlink:href="#DejaVuSans-58" transform="translate(1504.75 0)"/>
     <use xlink:href="#DejaVuSans-55" transform="translate(1568.125 0)"/>
     <use xlink:href="#DejaVuSans-48" transform="translate(1607.03125 0)"/>
    </g>
   </g>
  </g>
 </g>
 <defs>
  <clipPath id="pcaac9bda4f">
   <rect x="7.2" y="35.3575" width="1130.4" height="562.16"/>
  </clipPath>
 </defs>
</svg>
